<?xml version="1.0" encoding="utf-8"?>
<!-- Generator: Adobe Illustrator 18.0.0, SVG Export Plug-In . SVG Version: 6.00 Build 0)  -->
<!DOCTYPE svg PUBLIC "-//W3C//DTD SVG 1.1//EN" "http://www.w3.org/Graphics/SVG/1.1/DTD/svg11.dtd">
<svg version="1.1" id="Capa_1" xmlns="http://www.w3.org/2000/svg" xmlns:xlink="http://www.w3.org/1999/xlink" x="0px" y="0px"
	 width="434.6px" height="434.6px" viewBox="0 0 434.6 434.6" enable-background="new 0 0 434.6 434.6" xml:space="preserve">
<g>
	<path fill="#FFFFFF" stroke="#FFFFFF" stroke-width="6" stroke-miterlimit="10" d="M431.6,83.4v267.9c0,44.4-36,80.4-80.4,80.4
		h-52.5v-166h55.5l8.4-64.7h-63.9v-41.3c0-18.7,5-31.3,32.1-31.3l34-0.3V70.2c-5.9-0.8-26.2-2.5-49.7-2.5
		c-49.4,0-83.4,30.1-83.4,85.4v47.7H176v64.7h55.8v166H83.4C39,431.6,3,395.6,3,351.2V83.4C3,39,39,3,83.4,3h267.9
		C395.6,3,431.6,39,431.6,83.4z"/>
</g>
</svg>
