<svg width="3000" height="1688" viewBox="0 0 3000 1688" version="1.1" xmlns="http://www.w3.org/2000/svg" xmlns:xlink="http://www.w3.org/1999/xlink">
<title>Frame</title>
<desc>Created using Figma</desc>
<g id="Canvas" transform="translate(-2641 -2)">
 clip-path="url(#clip-0)"<g id="Frame">
<path d="M 2641 2L 5641 2L 5641 1689.5L 2641 1689.5L 2641 2Z" fill="#FFFFFF"/>
<g id="Group">
<g id="Rectangle">
<use xlink:href="#path0_fill" transform="translate(2641 2)" fill="#301440"/>
<use xlink:href="#path0_fill" transform="translate(2641 2)" fill="url(#paint1_linear)"/>
</g>
<g id="Ellipse">
<use xlink:href="#path1_fill" transform="translate(3557.41 194.188)" fill="#F2D18A"/>
</g>
<g id="Rectangle 3">
<use xlink:href="#path2_fill" transform="translate(3557.41 759.031)" fill="#F2D18A"/>
</g>
<g id="Rectangle 3">
<use xlink:href="#path3_fill" transform="translate(3613.66 897.312)" fill="#F2D18A"/>
</g>
<g id="Rectangle 3">
<use xlink:href="#path4_fill" transform="translate(3730.84 1016.84)" fill="#F2D18A"/>
</g>
<g id="Rectangle 3">
<use xlink:href="#path5_fill" transform="translate(3937.09 1112.94)" fill="#F2D18A"/>
</g>
<g id="Vector">
<use xlink:href="#path6_fill" transform="translate(2641 391.062)" fill="#7A2150"/>
<use xlink:href="#path7_stroke" transform="translate(2641 391.062)" fill="#7A2150"/>
</g>
</g>
<g id="Diego Hurtado&#226;&#128;&#153;s Official Website">
<use xlink:href="#path8_fill" transform="translate(3136 772)" fill="#FFFFFF"/>
<mask id="mask0_outline_out">
<rect id="mask0_outline_inv" fill="white" x="7" y="22" width="2001" height="120" transform="translate(3136 772)"/>
<use xlink:href="#path8_fill" fill="black" transform="translate(3136 772)"/>
</mask>
<g mask="url(#mask0_outline_out)">
<use xlink:href="#path9_stroke_2x" transform="translate(3136 772)" fill="#FFFFFF"/>
</g>
</g>
</g>
</g>
<defs>
<linearGradient id="paint1_linear" x1="0" y1="0" x2="1" y2="0" gradientUnits="userSpaceOnUse" gradientTransform="matrix(1.83697e-13 1687.5 -3000 1.0333e-13 3000 -1.0333e-13)">
<stop offset="0.0166667" stop-color="#D68787"/>
<stop offset="1" stop-color="#FFFFFF" stop-opacity="0"/>
</linearGradient>
<path id="path0_fill" d="M 0 0L 3000 0L 3000 1687.5L 0 1687.5L 0 0Z"/>
<path id="path1_fill" d="M 585.938 0C 262.333 0 0 252.889 0 564.844L 1171.88 564.844C 1171.88 252.889 909.542 0 585.938 0Z"/>
<path id="path2_fill" d="M 0 0L 1171.88 0L 1171.88 80.7812C 1171.88 91.8269 1162.92 100.781 1151.88 100.781L 15 100.781C 6.71573 100.781 0 94.0655 0 85.7812L 0 0Z"/>
<path id="path3_fill" d="M 0 0L 1054.69 0L 1054.69 52.0312C 1054.69 68.5998 1041.26 82.0312 1024.69 82.0312L 30 82.0312C 13.4315 82.0312 0 68.5998 0 52.0312L 0 0Z"/>
<path id="path4_fill" d="M 0 0L 820.312 0L 820.312 8.59375C 820.312 36.208 797.927 58.5938 770.312 58.5938L 50 58.5938C 22.3858 58.5938 0 36.208 0 8.59375L 0 0Z"/>
<path id="path5_fill" d="M 0 0L 410.156 0L 410.156 8.59375C 410.156 36.208 387.77 58.5938 360.156 58.5938L 50 58.5938C 22.3858 58.5938 0 36.208 0 8.59375L 0 0Z"/>
<path id="path6_fill" d="M 164.963 476.809L 164.963 682.216L 0 682.216L 0 1085.89L 0 1298.44L 1880.88 1298.44L 3000 1298.44L 3000 476.809L 2877.74 476.809L 2877.74 212.68L 2694.36 212.68L 2694.36 0L 2513.32 0L 2513.32 655.763L 2280.56 655.763L 2280.56 430.423L 2104.23 430.423L 2104.23 129.127L 1880.88 129.127L 1880.88 571.978L 1761.57 571.978L 1761.57 682.216L 1629.01 682.216L 1629.01 413.362L 1468.47 413.362L 1468.47 265.85L 1288.78 265.85L 1288.78 571.978L 1123.81 571.978L 1123.81 793.247L 996.094 793.247L 996.094 616.39L 736.283 616.39L 736.283 302.344L 513.281 302.344L 513.281 805.936L 355.078 805.936L 355.078 476.809L 164.963 476.809Z"/>
<path id="path7_stroke" d="M 164.963 682.216L 164.963 682.716L 165.463 682.716L 165.463 682.216L 164.963 682.216ZM 164.963 476.809L 164.963 476.309L 164.463 476.309L 164.463 476.809L 164.963 476.809ZM 355.078 476.809L 355.578 476.809L 355.578 476.309L 355.078 476.309L 355.078 476.809ZM 355.078 805.936L 354.578 805.936L 354.578 806.436L 355.078 806.436L 355.078 805.936ZM 513.281 805.936L 513.281 806.436L 513.781 806.436L 513.781 805.936L 513.281 805.936ZM 513.281 302.344L 513.281 301.844L 512.781 301.844L 512.781 302.344L 513.281 302.344ZM 736.283 302.344L 736.783 302.344L 736.783 301.844L 736.283 301.844L 736.283 302.344ZM 736.283 616.39L 735.783 616.39L 735.783 616.89L 736.283 616.89L 736.283 616.39ZM 996.094 616.39L 996.594 616.39L 996.594 615.89L 996.094 615.89L 996.094 616.39ZM 996.094 793.247L 995.594 793.247L 995.594 793.747L 996.094 793.747L 996.094 793.247ZM 1123.81 793.247L 1123.81 793.747L 1124.31 793.747L 1124.31 793.247L 1123.81 793.247ZM 1123.81 571.978L 1123.81 571.478L 1123.31 571.478L 1123.31 571.978L 1123.81 571.978ZM 1288.78 571.978L 1288.78 572.478L 1289.28 572.478L 1289.28 571.978L 1288.78 571.978ZM 1288.78 265.85L 1288.78 265.35L 1288.28 265.35L 1288.28 265.85L 1288.78 265.85ZM 1468.47 265.85L 1468.97 265.85L 1468.97 265.35L 1468.47 265.35L 1468.47 265.85ZM 1468.47 413.362L 1467.97 413.362L 1467.97 413.862L 1468.47 413.862L 1468.47 413.362ZM 1629.01 413.362L 1629.51 413.362L 1629.51 412.862L 1629.01 412.862L 1629.01 413.362ZM 1629.01 682.216L 1628.51 682.216L 1628.51 682.716L 1629.01 682.716L 1629.01 682.216ZM 1761.57 682.216L 1761.57 682.716L 1762.07 682.716L 1762.07 682.216L 1761.57 682.216ZM 1761.57 571.978L 1761.57 571.478L 1761.07 571.478L 1761.07 571.978L 1761.57 571.978ZM 0 1298.44L -0.5 1298.44L -0.5 1298.94L 0 1298.94L 0 1298.44ZM 0 682.216L 0 681.716L -0.5 681.716L -0.5 682.216L 0 682.216ZM 1880.88 571.978L 1880.88 572.478L 1881.38 572.478L 1881.38 571.978L 1880.88 571.978ZM 1880.88 129.127L 1880.88 128.627L 1880.38 128.627L 1880.38 129.127L 1880.88 129.127ZM 2104.23 129.127L 2104.73 129.127L 2104.73 128.627L 2104.23 128.627L 2104.23 129.127ZM 2104.23 430.423L 2103.73 430.423L 2103.73 430.923L 2104.23 430.923L 2104.23 430.423ZM 2280.56 430.423L 2281.06 430.423L 2281.06 429.923L 2280.56 429.923L 2280.56 430.423ZM 2280.56 655.763L 2280.06 655.763L 2280.06 656.263L 2280.56 656.263L 2280.56 655.763ZM 2513.32 655.763L 2513.32 656.263L 2513.82 656.263L 2513.82 655.763L 2513.32 655.763ZM 2513.32 0L 2513.32 -0.5L 2512.82 -0.5L 2512.82 0L 2513.32 0ZM 2694.36 0L 2694.86 0L 2694.86 -0.5L 2694.36 -0.5L 2694.36 0ZM 2694.36 212.68L 2693.86 212.68L 2693.86 213.18L 2694.36 213.18L 2694.36 212.68ZM 2877.74 212.68L 2878.24 212.68L 2878.24 212.18L 2877.74 212.18L 2877.74 212.68ZM 2877.74 476.809L 2877.24 476.809L 2877.24 477.309L 2877.74 477.309L 2877.74 476.809ZM 3000 476.809L 3000.5 476.809L 3000.5 476.309L 3000 476.309L 3000 476.809ZM 3000 1298.44L 3000 1298.94L 3000.5 1298.94L 3000.5 1298.44L 3000 1298.44ZM 165.463 682.216L 165.463 476.809L 164.463 476.809L 164.463 682.216L 165.463 682.216ZM 164.963 477.309L 355.078 477.309L 355.078 476.309L 164.963 476.309L 164.963 477.309ZM 354.578 476.809L 354.578 805.936L 355.578 805.936L 355.578 476.809L 354.578 476.809ZM 355.078 806.436L 513.281 806.436L 513.281 805.436L 355.078 805.436L 355.078 806.436ZM 513.781 805.936L 513.781 302.344L 512.781 302.344L 512.781 805.936L 513.781 805.936ZM 513.281 302.844L 736.283 302.844L 736.283 301.844L 513.281 301.844L 513.281 302.844ZM 735.783 302.344L 735.783 616.39L 736.783 616.39L 736.783 302.344L 735.783 302.344ZM 736.283 616.89L 996.094 616.89L 996.094 615.89L 736.283 615.89L 736.283 616.89ZM 995.594 616.39L 995.594 793.247L 996.594 793.247L 996.594 616.39L 995.594 616.39ZM 996.094 793.747L 1123.81 793.747L 1123.81 792.747L 996.094 792.747L 996.094 793.747ZM 1124.31 793.247L 1124.31 571.978L 1123.31 571.978L 1123.31 793.247L 1124.31 793.247ZM 1123.81 572.478L 1288.78 572.478L 1288.78 571.478L 1123.81 571.478L 1123.81 572.478ZM 1289.28 571.978L 1289.28 265.85L 1288.28 265.85L 1288.28 571.978L 1289.28 571.978ZM 1288.78 266.35L 1468.47 266.35L 1468.47 265.35L 1288.78 265.35L 1288.78 266.35ZM 1467.97 265.85L 1467.97 413.362L 1468.97 413.362L 1468.97 265.85L 1467.97 265.85ZM 1468.47 413.862L 1629.01 413.862L 1629.01 412.862L 1468.47 412.862L 1468.47 413.862ZM 1628.51 413.362L 1628.51 682.216L 1629.51 682.216L 1629.51 413.362L 1628.51 413.362ZM 1629.01 682.716L 1761.57 682.716L 1761.57 681.716L 1629.01 681.716L 1629.01 682.716ZM 1762.07 682.216L 1762.07 571.978L 1761.07 571.978L 1761.07 682.216L 1762.07 682.216ZM 1880.88 1297.94L 0 1297.94L 0 1298.94L 1880.88 1298.94L 1880.88 1297.94ZM 0.5 1298.44L 0.5 1085.89L -0.5 1085.89L -0.5 1298.44L 0.5 1298.44ZM 164.963 681.716L 0 681.716L 0 682.716L 164.963 682.716L 164.963 681.716ZM -0.5 682.216L -0.5 1085.89L 0.5 1085.89L 0.5 682.216L -0.5 682.216ZM 1761.57 572.478L 1880.88 572.478L 1880.88 571.478L 1761.57 571.478L 1761.57 572.478ZM 1881.38 571.978L 1881.38 129.127L 1880.38 129.127L 1880.38 571.978L 1881.38 571.978ZM 1880.88 129.627L 2104.23 129.627L 2104.23 128.627L 1880.88 128.627L 1880.88 129.627ZM 2103.73 129.127L 2103.73 430.423L 2104.73 430.423L 2104.73 129.127L 2103.73 129.127ZM 2104.23 430.923L 2280.56 430.923L 2280.56 429.923L 2104.23 429.923L 2104.23 430.923ZM 2280.06 430.423L 2280.06 655.763L 2281.06 655.763L 2281.06 430.423L 2280.06 430.423ZM 2280.56 656.263L 2513.32 656.263L 2513.32 655.263L 2280.56 655.263L 2280.56 656.263ZM 2513.82 655.763L 2513.82 0L 2512.82 0L 2512.82 655.763L 2513.82 655.763ZM 2513.32 0.5L 2694.36 0.5L 2694.36 -0.5L 2513.32 -0.5L 2513.32 0.5ZM 2693.86 0L 2693.86 212.68L 2694.86 212.68L 2694.86 0L 2693.86 0ZM 2694.36 213.18L 2877.74 213.18L 2877.74 212.18L 2694.36 212.18L 2694.36 213.18ZM 2877.24 212.68L 2877.24 476.809L 2878.24 476.809L 2878.24 212.68L 2877.24 212.68ZM 2877.74 477.309L 3000 477.309L 3000 476.309L 2877.74 476.309L 2877.74 477.309ZM 2999.5 476.809L 2999.5 1298.44L 3000.5 1298.44L 3000.5 476.809L 2999.5 476.809ZM 3000 1297.94L 1880.88 1297.94L 1880.88 1298.94L 3000 1298.94L 3000 1297.94Z"/>
<path id="path8_fill" d="M 44.4 31.88L 8.16 31.88L 8.16 116L 43.56 116C 70.8 116 89.16 98.96 89.16 73.88C 89.16 48.92 71.04 31.88 44.4 31.88ZM 45 98.24L 30.12 98.24L 30.12 49.76L 43.92 49.76C 57.24 49.76 66.72 59.6 66.72 74.12C 66.72 88.52 57.72 98.24 45 98.24ZM 110.715 23C 105.075 23 100.995 27.08 100.995 32.84C 100.995 38.48 105.075 42.56 110.715 42.56C 116.355 42.56 120.435 38.48 120.435 32.84C 120.435 27.08 116.355 23 110.715 23ZM 100.035 51.08L 100.035 116L 121.275 116L 121.275 51.08L 100.035 51.08ZM 166.212 50.36C 145.932 50.36 132.372 63.68 132.372 83.84C 132.372 103.64 145.452 116.72 166.692 116.72C 178.692 116.72 188.412 112.64 195.012 105.2L 183.852 94.04C 179.532 98.36 174.132 100.64 168.612 100.64C 161.292 100.64 155.892 96.56 153.852 89.24L 198.972 89.24C 200.412 65.6 188.892 50.36 166.212 50.36ZM 153.372 77.84C 154.812 70.4 159.372 65.36 166.332 65.36C 173.532 65.36 178.332 70.4 178.332 77.84L 153.372 77.84ZM 250.877 51.08L 250.877 59C 246.557 53.48 240.077 50.36 231.917 50.36C 215.837 50.36 204.677 62.6 204.677 81.08C 204.677 99.92 216.197 112.4 232.397 112.4C 240.437 112.4 246.677 109.4 250.877 103.88L 250.877 110.84C 250.877 118.4 244.997 123.32 235.277 123.32C 228.317 123.32 221.117 121.04 215.237 116.96L 207.797 131.72C 215.117 136.52 225.437 140.12 236.837 140.12C 257.837 140.12 272.117 128.6 272.117 110.24L 272.117 51.08L 250.877 51.08ZM 237.797 96.8C 229.877 96.8 224.597 90.56 224.597 81.68C 224.597 72.68 229.877 66.44 237.797 66.44C 245.597 66.44 250.877 72.56 250.877 81.68C 250.877 90.56 245.597 96.8 237.797 96.8ZM 317.889 50.36C 296.529 50.36 282.489 63.56 282.489 83.48C 282.489 103.52 296.529 116.72 317.889 116.72C 339.249 116.72 353.409 103.52 353.409 83.48C 353.409 63.56 339.249 50.36 317.889 50.36ZM 317.889 67.64C 326.289 67.64 331.929 74.12 331.929 83.72C 331.929 93.44 326.289 99.92 317.889 99.92C 309.609 99.92 303.969 93.44 303.969 83.72C 303.969 74.12 309.609 67.64 317.889 67.64ZM 400.269 31.88L 400.269 116L 422.229 116L 422.229 83.72L 456.189 83.72L 456.189 116L 478.149 116L 478.149 31.88L 456.189 31.88L 456.189 66.2L 422.229 66.2L 422.229 31.88L 400.269 31.88ZM 536.488 51.08L 536.488 83.12C 536.488 91.64 531.928 97.64 524.368 97.76C 518.008 97.76 513.928 93.32 513.928 86L 513.928 51.08L 492.568 51.08L 492.568 92.12C 492.568 107.24 501.688 116.96 515.728 116.96C 524.968 116.84 532.048 113 536.488 105.44L 536.488 116L 557.848 116L 557.848 51.08L 536.488 51.08ZM 595.536 61.88L 595.536 51.08L 574.176 51.08L 574.176 116L 595.536 116L 595.536 82.88C 596.616 73.88 604.536 68.6 616.416 69.8L 616.416 50.24C 607.296 50.24 599.976 54.44 595.536 61.88ZM 663.898 97.52C 660.778 98.84 658.018 99.68 655.858 99.68C 652.138 99.8 649.978 97.64 649.978 92.84L 649.978 68.36L 666.778 68.36L 666.778 54.2L 649.978 54.2L 649.978 36.2L 628.738 36.2L 628.738 54.2L 619.738 54.2L 619.738 68.36L 628.738 68.36L 628.738 96.2C 628.738 109.64 637.858 117.08 650.458 116.96C 656.818 116.96 663.298 115.4 667.978 112.64L 663.898 97.52ZM 707.401 50.24C 696.721 50.24 687.361 52.76 677.161 57.32L 683.041 71.72C 690.001 68.36 697.081 66.56 702.481 66.56C 710.641 66.56 714.841 70.16 714.841 76.28L 714.841 77L 697.921 77C 681.841 77.24 673.081 84.32 673.081 96.68C 673.081 108.56 681.361 116.96 695.281 116.96C 704.041 116.96 710.641 114.08 714.841 108.68L 714.841 116L 735.841 116L 735.841 73.76C 735.721 58.88 725.281 50.24 707.401 50.24ZM 701.881 102.44C 696.361 102.44 693.121 99.56 693.121 95.12C 693.121 90.56 696.121 88.4 702.121 88.4L 714.841 88.4L 714.841 94.04C 713.521 98.96 708.241 102.44 701.881 102.44ZM 794.351 26.96L 794.351 59.6C 789.791 53.72 783.071 50.36 774.671 50.36C 756.791 50.36 744.911 63.44 744.911 83.24C 744.911 103.4 756.911 116.84 775.151 116.84C 783.311 116.84 789.911 113.6 794.351 107.6L 794.351 116L 815.711 116L 815.711 26.96L 794.351 26.96ZM 780.431 100.04C 772.031 100.04 766.391 93.44 766.391 83.84C 766.391 74.24 772.031 67.64 780.431 67.64C 788.711 67.64 794.351 74.12 794.351 83.84C 794.351 93.44 788.711 100.04 780.431 100.04ZM 862.694 50.36C 841.334 50.36 827.294 63.56 827.294 83.48C 827.294 103.52 841.334 116.72 862.694 116.72C 884.054 116.72 898.214 103.52 898.214 83.48C 898.214 63.56 884.054 50.36 862.694 50.36ZM 862.694 67.64C 871.094 67.64 876.734 74.12 876.734 83.72C 876.734 93.44 871.094 99.92 862.694 99.92C 854.414 99.92 848.774 93.44 848.774 83.72C 848.774 74.12 854.414 67.64 862.694 67.64ZM 915.697 32C 909.817 32 905.497 36.2 905.497 42.2C 905.497 45.44 906.817 48.44 909.457 50.24L 904.058 63.44L 914.138 63.44L 923.138 50.36C 924.697 47.96 925.898 45.32 925.898 42.2C 925.898 35.6 921.097 32 915.697 32ZM 981.597 71.6L 988.797 57.68C 980.637 52.76 971.157 50.12 961.797 50.12C 946.557 50.12 935.157 57.56 935.157 71.12C 935.157 93.56 968.637 89.12 968.637 98C 968.637 100.64 965.757 101.96 961.797 101.96C 954.597 101.96 946.197 99.08 938.757 93.92L 932.037 107.72C 939.957 113.84 950.397 116.96 961.317 116.96C 977.157 116.96 988.797 109.4 988.797 96.08C 988.917 73.52 954.837 77.6 954.837 69.08C 954.837 66.32 957.357 65 960.957 65C 966.237 65 973.557 67.4 981.597 71.6ZM 1076.33 31.28C 1050.29 31.28 1030.85 49.4 1030.85 73.88C 1030.85 98.48 1050.29 116.96 1076.33 116.96C 1102.37 116.96 1121.81 98.48 1121.81 73.88C 1121.81 49.52 1102.37 31.28 1076.33 31.28ZM 1076.57 50C 1089.17 50 1099.25 60.32 1099.25 74C 1099.25 87.68 1089.17 98.24 1076.57 98.24C 1064.09 98.24 1053.41 87.68 1053.41 74C 1053.41 60.32 1063.97 50 1076.57 50ZM 1237.33 42.56C 1242.97 42.56 1247.05 38.48 1247.05 32.84C 1247.05 27.08 1242.97 23 1237.33 23C 1231.69 23 1227.61 27.08 1227.61 32.84C 1227.61 38.48 1231.69 42.56 1237.33 42.56ZM 1165.09 43.04C 1167.37 43.04 1170.25 44 1172.53 45.68L 1179.97 30.56C 1175.05 27.68 1167.97 26 1161.49 26C 1147.33 25.88 1136.53 33.92 1136.53 48.2L 1136.53 54.2L 1127.77 54.2L 1127.77 68.36L 1136.53 68.36L 1136.53 116L 1157.77 116L 1157.77 68.36L 1172.17 68.36L 1172.17 54.2L 1157.77 54.2L 1157.77 50C 1157.77 45.32 1160.89 43.04 1165.09 43.04ZM 1183.69 48.2L 1183.69 54.2L 1174.93 54.2L 1174.93 68.36L 1183.69 68.36L 1183.69 116L 1204.93 116L 1204.93 68.36L 1219.33 68.36L 1219.33 54.2L 1204.93 54.2L 1204.93 50C 1204.93 45.32 1207.93 43.04 1212.25 43.16C 1214.77 43.16 1217.89 44.12 1220.65 45.56L 1221.37 28.4C 1218.01 26.84 1213.21 26 1208.65 26C 1194.61 25.88 1183.69 33.8 1183.69 48.2ZM 1226.65 51.08L 1226.65 116L 1247.89 116L 1247.89 51.08L 1226.65 51.08ZM 1306.17 74.72L 1321.65 65.72C 1316.01 56 1305.69 50.36 1292.61 50.36C 1272.45 50.36 1259.01 63.68 1259.01 83.84C 1259.01 103.64 1272.33 116.72 1292.37 116.72C 1306.17 116.72 1316.73 111.08 1321.89 101.12L 1306.17 92.12C 1303.53 97.16 1299.09 99.44 1293.45 99.44C 1285.77 99.44 1280.49 93.2 1280.49 83.72C 1280.49 74.36 1285.77 68 1293.45 68C 1298.97 68 1303.29 70.52 1306.17 74.72ZM 1342.36 23C 1336.72 23 1332.64 27.08 1332.64 32.84C 1332.64 38.48 1336.72 42.56 1342.36 42.56C 1348 42.56 1352.08 38.48 1352.08 32.84C 1352.08 27.08 1348 23 1342.36 23ZM 1331.68 51.08L 1331.68 116L 1352.92 116L 1352.92 51.08L 1331.68 51.08ZM 1398.57 50.24C 1387.89 50.24 1378.53 52.76 1368.33 57.32L 1374.21 71.72C 1381.17 68.36 1388.25 66.56 1393.65 66.56C 1401.81 66.56 1406.01 70.16 1406.01 76.28L 1406.01 77L 1389.09 77C 1373.01 77.24 1364.25 84.32 1364.25 96.68C 1364.25 108.56 1372.53 116.96 1386.45 116.96C 1395.21 116.96 1401.81 114.08 1406.01 108.68L 1406.01 116L 1427.01 116L 1427.01 73.76C 1426.89 58.88 1416.45 50.24 1398.57 50.24ZM 1393.05 102.44C 1387.53 102.44 1384.29 99.56 1384.29 95.12C 1384.29 90.56 1387.29 88.4 1393.29 88.4L 1406.01 88.4L 1406.01 94.04C 1404.69 98.96 1399.41 102.44 1393.05 102.44ZM 1441.96 26.96L 1441.96 116L 1463.32 116L 1463.32 26.96L 1441.96 26.96ZM 1507.85 31.88L 1535.45 116L 1558.01 116L 1573.61 59.24L 1588.73 116L 1611.41 116L 1639.13 31.88L 1616.57 31.88L 1600.73 92.72L 1584.77 31.88L 1563.29 31.88L 1547.45 92.72L 1531.49 31.88L 1507.85 31.88ZM 1667.38 50.36C 1647.1 50.36 1633.54 63.68 1633.54 83.84C 1633.54 103.64 1646.62 116.72 1667.86 116.72C 1679.86 116.72 1689.58 112.64 1696.18 105.2L 1685.02 94.04C 1680.7 98.36 1675.3 100.64 1669.78 100.64C 1662.46 100.64 1657.06 96.56 1655.02 89.24L 1700.14 89.24C 1701.58 65.6 1690.06 50.36 1667.38 50.36ZM 1654.54 77.84C 1655.98 70.4 1660.54 65.36 1667.5 65.36C 1674.7 65.36 1679.5 70.4 1679.5 77.84L 1654.54 77.84ZM 1752.17 50.36C 1744.13 50.36 1737.65 53.6 1733.09 59.48L 1733.09 26.96L 1711.73 26.96L 1711.73 116L 1733.09 116L 1733.09 107.6C 1737.65 113.48 1744.37 116.72 1752.65 116.72C 1770.65 116.72 1782.41 103.64 1782.41 83.84C 1782.41 63.68 1770.29 50.36 1752.17 50.36ZM 1746.89 99.44C 1738.73 99.44 1733.09 92.96 1733.09 83.36C 1733.09 73.76 1738.73 67.16 1746.89 67.16C 1755.29 67.16 1760.93 73.76 1760.93 83.36C 1760.93 92.96 1755.29 99.44 1746.89 99.44ZM 1836.71 71.6L 1843.91 57.68C 1835.75 52.76 1826.27 50.12 1816.91 50.12C 1801.67 50.12 1790.27 57.56 1790.27 71.12C 1790.27 93.56 1823.75 89.12 1823.75 98C 1823.75 100.64 1820.87 101.96 1816.91 101.96C 1809.71 101.96 1801.31 99.08 1793.87 93.92L 1787.15 107.72C 1795.07 113.84 1805.51 116.96 1816.43 116.96C 1832.27 116.96 1843.91 109.4 1843.91 96.08C 1844.03 73.52 1809.95 77.6 1809.95 69.08C 1809.95 66.32 1812.47 65 1816.07 65C 1821.35 65 1828.67 67.4 1836.71 71.6ZM 1866.07 23C 1860.43 23 1856.35 27.08 1856.35 32.84C 1856.35 38.48 1860.43 42.56 1866.07 42.56C 1871.71 42.56 1875.79 38.48 1875.79 32.84C 1875.79 27.08 1871.71 23 1866.07 23ZM 1855.39 51.08L 1855.39 116L 1876.63 116L 1876.63 51.08L 1855.39 51.08ZM 1931.16 97.52C 1928.04 98.84 1925.28 99.68 1923.12 99.68C 1919.4 99.8 1917.24 97.64 1917.24 92.84L 1917.24 68.36L 1934.04 68.36L 1934.04 54.2L 1917.24 54.2L 1917.24 36.2L 1896 36.2L 1896 54.2L 1887 54.2L 1887 68.36L 1896 68.36L 1896 96.2C 1896 109.64 1905.12 117.08 1917.72 116.96C 1924.08 116.96 1930.56 115.4 1935.24 112.64L 1931.16 97.52ZM 1973.6 50.36C 1953.32 50.36 1939.76 63.68 1939.76 83.84C 1939.76 103.64 1952.84 116.72 1974.08 116.72C 1986.08 116.72 1995.8 112.64 2002.39 105.2L 1991.23 94.04C 1986.91 98.36 1981.51 100.64 1975.99 100.64C 1968.67 100.64 1963.27 96.56 1961.23 89.24L 2006.36 89.24C 2007.8 65.6 1996.28 50.36 1973.6 50.36ZM 1960.76 77.84C 1962.2 70.4 1966.75 65.36 1973.71 65.36C 1980.91 65.36 1985.71 70.4 1985.71 77.84L 1960.76 77.84Z"/>
<path id="path9_stroke_2x" d="M 8.16 31.88L 8.16 30.88L 7.16 30.88L 7.16 31.88L 8.16 31.88ZM 8.16 116L 7.16 116L 7.16 117L 8.16 117L 8.16 116ZM 30.12 98.24L 29.12 98.24L 29.12 99.24L 30.12 99.24L 30.12 98.24ZM 30.12 49.76L 30.12 48.76L 29.12 48.76L 29.12 49.76L 30.12 49.76ZM 44.4 30.88L 8.16 30.88L 8.16 32.88L 44.4 32.88L 44.4 30.88ZM 7.16 31.88L 7.16 116L 9.16 116L 9.16 31.88L 7.16 31.88ZM 8.16 117L 43.56 117L 43.56 115L 8.16 115L 8.16 117ZM 43.56 117C 57.3885 117 69.0447 112.672 77.254 105.079C 85.4699 97.4799 90.16 86.6759 90.16 73.88L 88.16 73.88C 88.16 86.1641 83.6701 96.4201 75.896 103.611C 68.1153 110.808 56.9715 115 43.56 115L 43.56 117ZM 90.16 73.88C 90.16 61.1473 85.5323 50.3755 77.4545 42.791C 69.3819 35.2113 57.9343 30.88 44.4 30.88L 44.4 32.88C 57.5057 32.88 68.4381 37.0687 76.0855 44.249C 83.7277 51.4245 88.16 61.6527 88.16 73.88L 90.16 73.88ZM 45 97.24L 30.12 97.24L 30.12 99.24L 45 99.24L 45 97.24ZM 31.12 98.24L 31.12 49.76L 29.12 49.76L 29.12 98.24L 31.12 98.24ZM 30.12 50.76L 43.92 50.76L 43.92 48.76L 30.12 48.76L 30.12 50.76ZM 43.92 50.76C 56.6341 50.76 65.72 60.0971 65.72 74.12L 67.72 74.12C 67.72 59.1029 57.8459 48.76 43.92 48.76L 43.92 50.76ZM 65.72 74.12C 65.72 81.112 63.5372 86.8898 59.8896 90.9079C 56.2482 94.919 51.0918 97.24 45 97.24L 45 99.24C 51.6282 99.24 57.3318 96.701 61.3704 92.2521C 65.4028 87.8102 67.72 81.528 67.72 74.12L 65.72 74.12ZM 100.035 51.08L 100.035 50.08L 99.035 50.08L 99.035 51.08L 100.035 51.08ZM 100.035 116L 99.035 116L 99.035 117L 100.035 117L 100.035 116ZM 121.275 116L 121.275 117L 122.275 117L 122.275 116L 121.275 116ZM 121.275 51.08L 122.275 51.08L 122.275 50.08L 121.275 50.08L 121.275 51.08ZM 110.715 22C 104.515 22 99.995 26.5359 99.995 32.84L 101.995 32.84C 101.995 27.6241 105.635 24 110.715 24L 110.715 22ZM 99.995 32.84C 99.995 39.0323 104.523 43.56 110.715 43.56L 110.715 41.56C 105.627 41.56 101.995 37.9277 101.995 32.84L 99.995 32.84ZM 110.715 43.56C 116.907 43.56 121.435 39.0323 121.435 32.84L 119.435 32.84C 119.435 37.9277 115.803 41.56 110.715 41.56L 110.715 43.56ZM 121.435 32.84C 121.435 26.5359 116.915 22 110.715 22L 110.715 24C 115.795 24 119.435 27.6241 119.435 32.84L 121.435 32.84ZM 99.035 51.08L 99.035 116L 101.035 116L 101.035 51.08L 99.035 51.08ZM 100.035 117L 121.275 117L 121.275 115L 100.035 115L 100.035 117ZM 122.275 116L 122.275 51.08L 120.275 51.08L 120.275 116L 122.275 116ZM 121.275 50.08L 100.035 50.08L 100.035 52.08L 121.275 52.08L 121.275 50.08ZM 195.012 105.2L 195.76 105.864L 196.385 105.159L 195.719 104.493L 195.012 105.2ZM 183.852 94.04L 184.559 93.3329L 183.852 92.6258L 183.145 93.3329L 183.852 94.04ZM 153.852 89.24L 153.852 88.24L 152.535 88.24L 152.889 89.5085L 153.852 89.24ZM 198.972 89.24L 198.972 90.24L 199.913 90.24L 199.97 89.3008L 198.972 89.24ZM 153.372 77.84L 152.39 77.65L 152.16 78.84L 153.372 78.84L 153.372 77.84ZM 178.332 77.84L 178.332 78.84L 179.332 78.84L 179.332 77.84L 178.332 77.84ZM 166.212 49.36C 155.849 49.36 147.124 52.7672 140.985 58.8284C 134.844 64.8909 131.372 73.5298 131.372 83.84L 133.372 83.84C 133.372 73.9902 136.68 65.8891 142.39 60.2516C 148.101 54.6128 156.295 51.36 166.212 51.36L 166.212 49.36ZM 131.372 83.84C 131.372 93.9658 134.722 102.461 140.871 108.423C 147.018 114.383 155.866 117.72 166.692 117.72L 166.692 115.72C 156.279 115.72 147.967 112.517 142.263 106.987C 136.562 101.459 133.372 93.5142 133.372 83.84L 131.372 83.84ZM 166.692 117.72C 178.928 117.72 188.939 113.553 195.76 105.864L 194.264 104.536C 187.885 111.727 178.457 115.72 166.692 115.72L 166.692 117.72ZM 195.719 104.493L 184.559 93.3329L 183.145 94.7471L 194.305 105.907L 195.719 104.493ZM 183.145 93.3329C 178.999 97.4795 173.848 99.64 168.612 99.64L 168.612 101.64C 174.417 101.64 180.066 99.2405 184.559 94.7471L 183.145 93.3329ZM 168.612 99.64C 161.75 99.64 156.737 95.8678 154.815 88.9715L 152.889 89.5085C 155.047 97.2522 160.834 101.64 168.612 101.64L 168.612 99.64ZM 153.852 90.24L 198.972 90.24L 198.972 88.24L 153.852 88.24L 153.852 90.24ZM 199.97 89.3008C 200.7 77.3199 198.155 67.3219 192.411 60.3018C 186.649 53.2588 177.787 49.36 166.212 49.36L 166.212 51.36C 177.317 51.36 185.556 55.0812 190.863 61.5682C 196.189 68.0781 198.684 77.5201 197.974 89.1792L 199.97 89.3008ZM 154.354 78.03C 155.046 74.4544 156.473 71.533 158.489 69.5171C 160.49 67.5165 163.115 66.36 166.332 66.36L 166.332 64.36C 162.59 64.36 159.454 65.7235 157.075 68.1029C 154.711 70.467 153.138 73.7856 152.39 77.65L 154.354 78.03ZM 166.332 66.36C 169.69 66.36 172.419 67.5297 174.31 69.5021C 176.205 71.4784 177.332 74.3371 177.332 77.84L 179.332 77.84C 179.332 73.9029 178.059 70.5216 175.754 68.1179C 173.445 65.7103 170.174 64.36 166.332 64.36L 166.332 66.36ZM 178.332 76.84L 153.372 76.84L 153.372 78.84L 178.332 78.84L 178.332 76.84ZM 250.877 51.08L 250.877 50.08L 249.877 50.08L 249.877 51.08L 250.877 51.08ZM 250.877 59L 250.089 59.6163L 251.877 61.9003L 251.877 59L 250.877 59ZM 250.877 103.88L 251.877 103.88L 251.877 100.914L 250.081 103.274L 250.877 103.88ZM 215.237 116.96L 215.807 116.138L 214.862 115.483L 214.344 116.51L 215.237 116.96ZM 207.797 131.72L 206.904 131.27L 206.502 132.067L 207.249 132.556L 207.797 131.72ZM 272.117 51.08L 273.117 51.08L 273.117 50.08L 272.117 50.08L 272.117 51.08ZM 249.877 51.08L 249.877 59L 251.877 59L 251.877 51.08L 249.877 51.08ZM 251.664 58.3837C 247.137 52.5982 240.354 49.36 231.917 49.36L 231.917 51.36C 239.8 51.36 245.977 54.3618 250.089 59.6163L 251.664 58.3837ZM 231.917 49.36C 223.608 49.36 216.522 52.5295 211.521 58.1236C 206.529 63.7088 203.677 71.6406 203.677 81.08L 205.677 81.08C 205.677 72.0394 208.405 64.6112 213.012 59.4564C 217.612 54.3105 224.145 51.36 231.917 51.36L 231.917 49.36ZM 203.677 81.08C 203.677 90.7026 206.621 98.7838 211.717 104.472C 216.82 110.169 224.026 113.4 232.397 113.4L 232.397 111.4C 224.568 111.4 217.913 108.391 213.207 103.138C 208.493 97.8762 205.677 90.2974 205.677 81.08L 203.677 81.08ZM 232.397 113.4C 240.712 113.4 247.262 110.282 251.673 104.486L 250.081 103.274C 246.091 108.518 240.161 111.4 232.397 111.4L 232.397 113.4ZM 249.877 103.88L 249.877 110.84L 251.877 110.84L 251.877 103.88L 249.877 103.88ZM 249.877 110.84C 249.877 114.338 248.529 117.165 246.092 119.138C 243.634 121.13 239.979 122.32 235.277 122.32L 235.277 124.32C 240.295 124.32 244.44 123.05 247.351 120.692C 250.285 118.315 251.877 114.902 251.877 110.84L 249.877 110.84ZM 235.277 122.32C 228.47 122.332 221.558 120.142 215.807 116.138L 214.667 117.782C 220.676 121.938 228.164 124.308 235.277 124.32L 235.277 122.32ZM 214.344 116.51L 206.904 131.27L 208.69 132.17L 216.13 117.41L 214.344 116.51ZM 207.249 132.556C 214.675 137.417 225.27 141.106 236.837 141.12L 236.837 139.12C 225.604 139.134 215.559 135.623 208.345 130.884L 207.249 132.556ZM 236.837 141.12C 247.512 141.12 256.577 138.192 262.993 132.832C 269.427 127.458 273.117 119.701 273.117 110.24L 271.117 110.24C 271.117 119.139 267.667 126.322 261.711 131.298C 255.736 136.288 247.162 139.12 236.837 139.12L 236.837 141.12ZM 273.117 110.24L 273.117 51.08L 271.117 51.08L 271.117 110.24L 273.117 110.24ZM 272.117 50.08L 250.877 50.08L 250.877 52.08L 272.117 52.08L 272.117 50.08ZM 237.797 95.8C 234.118 95.8 231.097 94.3595 228.983 91.9157C 226.858 89.4596 225.597 85.9259 225.597 81.68L 223.597 81.68C 223.597 86.3141 224.976 90.3404 227.471 93.2243C 229.976 96.1205 233.555 97.8 237.797 97.8L 237.797 95.8ZM 225.597 81.68C 225.597 77.371 226.86 73.8072 228.985 71.3372C 231.099 68.8801 234.119 67.44 237.797 67.44L 237.797 65.44C 233.555 65.44 229.975 67.1199 227.469 70.0328C 224.974 72.9328 223.597 76.989 223.597 81.68L 225.597 81.68ZM 237.797 67.44C 241.417 67.44 244.406 68.8512 246.504 71.2918C 248.612 73.7453 249.877 77.3084 249.877 81.68L 251.877 81.68C 251.877 76.9316 250.501 72.8747 248.02 69.9882C 245.528 67.0888 241.977 65.44 237.797 65.44L 237.797 67.44ZM 249.877 81.68C 249.877 85.926 248.616 89.4611 246.504 91.9182C 244.402 94.3631 241.411 95.8 237.797 95.8L 237.797 97.8C 241.983 97.8 245.532 96.1169 248.02 93.2218C 250.498 90.3389 251.877 86.314 251.877 81.68L 249.877 81.68ZM 317.889 49.36C 307.003 49.36 297.893 52.7264 291.496 58.7202C 285.092 64.7198 281.489 73.2749 281.489 83.48L 283.489 83.48C 283.489 73.7651 286.907 65.7602 292.863 60.1798C 298.825 54.5936 307.415 51.36 317.889 51.36L 317.889 49.36ZM 281.489 83.48C 281.489 93.7434 285.091 102.329 291.495 108.344C 297.893 114.354 307.003 117.72 317.889 117.72L 317.889 115.72C 307.415 115.72 298.826 112.486 292.864 106.886C 286.908 101.291 283.489 93.2566 283.489 83.48L 281.489 83.48ZM 317.889 117.72C 328.775 117.72 337.915 114.354 344.342 108.346C 350.776 102.331 354.409 93.746 354.409 83.48L 352.409 83.48C 352.409 93.254 348.963 101.289 342.976 106.884C 336.984 112.486 328.364 115.72 317.889 115.72L 317.889 117.72ZM 354.409 83.48C 354.409 73.2723 350.775 64.7171 344.341 58.7186C 337.914 52.7262 328.775 49.36 317.889 49.36L 317.889 51.36C 328.364 51.36 336.985 54.5938 342.977 60.1814C 348.964 65.7629 352.409 73.7677 352.409 83.48L 354.409 83.48ZM 317.889 68.64C 321.815 68.64 325.045 70.1457 327.306 72.7374C 329.577 75.3409 330.929 79.1119 330.929 83.72L 332.929 83.72C 332.929 78.7281 331.462 74.4591 328.813 71.4226C 326.154 68.3743 322.364 66.64 317.889 66.64L 317.889 68.64ZM 330.929 83.72C 330.929 88.3909 329.575 92.1921 327.304 94.8096C 325.044 97.4146 321.815 98.92 317.889 98.92L 317.889 100.92C 322.364 100.92 326.155 99.1854 328.815 96.1204C 331.463 93.0679 332.929 88.7691 332.929 83.72L 330.929 83.72ZM 317.889 98.92C 314.028 98.92 310.829 97.4179 308.582 94.8119C 306.323 92.1935 304.969 88.3909 304.969 83.72L 302.969 83.72C 302.969 88.7691 304.435 93.0665 307.067 96.1181C 309.71 99.1821 313.47 100.92 317.889 100.92L 317.889 98.92ZM 304.969 83.72C 304.969 79.1119 306.322 75.3395 308.58 72.7351C 310.828 70.1425 314.028 68.64 317.889 68.64L 317.889 66.64C 313.471 66.64 309.711 68.3775 307.069 71.4249C 304.437 74.4605 302.969 78.7281 302.969 83.72L 304.969 83.72ZM 400.269 31.88L 400.269 30.88L 399.269 30.88L 399.269 31.88L 400.269 31.88ZM 400.269 116L 399.269 116L 399.269 117L 400.269 117L 400.269 116ZM 422.229 116L 422.229 117L 423.229 117L 423.229 116L 422.229 116ZM 422.229 83.72L 422.229 82.72L 421.229 82.72L 421.229 83.72L 422.229 83.72ZM 456.189 83.72L 457.189 83.72L 457.189 82.72L 456.189 82.72L 456.189 83.72ZM 456.189 116L 455.189 116L 455.189 117L 456.189 117L 456.189 116ZM 478.149 116L 478.149 117L 479.149 117L 479.149 116L 478.149 116ZM 478.149 31.88L 479.149 31.88L 479.149 30.88L 478.149 30.88L 478.149 31.88ZM 456.189 31.88L 456.189 30.88L 455.189 30.88L 455.189 31.88L 456.189 31.88ZM 456.189 66.2L 456.189 67.2L 457.189 67.2L 457.189 66.2L 456.189 66.2ZM 422.229 66.2L 421.229 66.2L 421.229 67.2L 422.229 67.2L 422.229 66.2ZM 422.229 31.88L 423.229 31.88L 423.229 30.88L 422.229 30.88L 422.229 31.88ZM 399.269 31.88L 399.269 116L 401.269 116L 401.269 31.88L 399.269 31.88ZM 400.269 117L 422.229 117L 422.229 115L 400.269 115L 400.269 117ZM 423.229 116L 423.229 83.72L 421.229 83.72L 421.229 116L 423.229 116ZM 422.229 84.72L 456.189 84.72L 456.189 82.72L 422.229 82.72L 422.229 84.72ZM 455.189 83.72L 455.189 116L 457.189 116L 457.189 83.72L 455.189 83.72ZM 456.189 117L 478.149 117L 478.149 115L 456.189 115L 456.189 117ZM 479.149 116L 479.149 31.88L 477.149 31.88L 477.149 116L 479.149 116ZM 478.149 30.88L 456.189 30.88L 456.189 32.88L 478.149 32.88L 478.149 30.88ZM 455.189 31.88L 455.189 66.2L 457.189 66.2L 457.189 31.88L 455.189 31.88ZM 456.189 65.2L 422.229 65.2L 422.229 67.2L 456.189 67.2L 456.189 65.2ZM 423.229 66.2L 423.229 31.88L 421.229 31.88L 421.229 66.2L 423.229 66.2ZM 422.229 30.88L 400.269 30.88L 400.269 32.88L 422.229 32.88L 422.229 30.88ZM 536.488 51.08L 536.488 50.08L 535.488 50.08L 535.488 51.08L 536.488 51.08ZM 524.368 97.76L 524.368 98.76L 524.376 98.76L 524.384 98.7599L 524.368 97.76ZM 513.928 51.08L 514.928 51.08L 514.928 50.08L 513.928 50.08L 513.928 51.08ZM 492.568 51.08L 492.568 50.08L 491.568 50.08L 491.568 51.08L 492.568 51.08ZM 515.728 116.96L 515.728 117.96L 515.741 117.96L 515.728 116.96ZM 536.488 105.44L 537.488 105.44L 537.488 101.763L 535.626 104.934L 536.488 105.44ZM 536.488 116L 535.488 116L 535.488 117L 536.488 117L 536.488 116ZM 557.848 116L 557.848 117L 558.848 117L 558.848 116L 557.848 116ZM 557.848 51.08L 558.848 51.08L 558.848 50.08L 557.848 50.08L 557.848 51.08ZM 535.488 51.08L 535.488 83.12L 537.488 83.12L 537.488 51.08L 535.488 51.08ZM 535.488 83.12C 535.488 87.2104 534.393 90.6005 532.485 92.9615C 530.594 95.3022 527.847 96.7047 524.352 96.7601L 524.384 98.7599C 528.449 98.6953 531.763 97.0378 534.041 94.2185C 536.303 91.4195 537.488 87.5496 537.488 83.12L 535.488 83.12ZM 524.368 96.76C 521.433 96.76 519.108 95.7433 517.508 93.9576C 515.896 92.1597 514.928 89.4795 514.928 86L 512.928 86C 512.928 89.8405 514 93.0403 516.018 95.2924C 518.048 97.5567 520.943 98.76 524.368 98.76L 524.368 96.76ZM 514.928 86L 514.928 51.08L 512.928 51.08L 512.928 86L 514.928 86ZM 513.928 50.08L 492.568 50.08L 492.568 52.08L 513.928 52.08L 513.928 50.08ZM 491.568 51.08L 491.568 92.12L 493.568 92.12L 493.568 51.08L 491.568 51.08ZM 491.568 92.12C 491.568 99.88 493.911 106.352 498.152 110.893C 502.4 115.44 508.468 117.96 515.728 117.96L 515.728 115.96C 508.949 115.96 503.436 113.62 499.614 109.527C 495.785 105.428 493.568 99.48 493.568 92.12L 491.568 92.12ZM 515.741 117.96C 525.296 117.836 532.716 113.837 537.35 105.946L 535.626 104.934C 531.38 112.163 524.64 115.844 515.715 115.96L 515.741 117.96ZM 535.488 105.44L 535.488 116L 537.488 116L 537.488 105.44L 535.488 105.44ZM 536.488 117L 557.848 117L 557.848 115L 536.488 115L 536.488 117ZM 558.848 116L 558.848 51.08L 556.848 51.08L 556.848 116L 558.848 116ZM 557.848 50.08L 536.488 50.08L 536.488 52.08L 557.848 52.08L 557.848 50.08ZM 595.536 61.88L 594.536 61.88L 594.536 65.5071L 596.394 62.3925L 595.536 61.88ZM 595.536 51.08L 596.536 51.08L 596.536 50.08L 595.536 50.08L 595.536 51.08ZM 574.176 51.08L 574.176 50.08L 573.176 50.08L 573.176 51.08L 574.176 51.08ZM 574.176 116L 573.176 116L 573.176 117L 574.176 117L 574.176 116ZM 595.536 116L 595.536 117L 596.536 117L 596.536 116L 595.536 116ZM 595.536 82.88L 594.543 82.7609L 594.536 82.8202L 594.536 82.88L 595.536 82.88ZM 616.416 69.8L 616.315 70.7949L 617.416 70.9061L 617.416 69.8L 616.416 69.8ZM 616.416 50.24L 617.416 50.24L 617.416 49.24L 616.416 49.24L 616.416 50.24ZM 596.536 61.88L 596.536 51.08L 594.536 51.08L 594.536 61.88L 596.536 61.88ZM 595.536 50.08L 574.176 50.08L 574.176 52.08L 595.536 52.08L 595.536 50.08ZM 573.176 51.08L 573.176 116L 575.176 116L 575.176 51.08L 573.176 51.08ZM 574.176 117L 595.536 117L 595.536 115L 574.176 115L 574.176 117ZM 596.536 116L 596.536 82.88L 594.536 82.88L 594.536 116L 596.536 116ZM 596.529 82.9991C 597.034 78.7872 599.124 75.4872 602.463 73.3582C 605.825 71.2151 610.534 70.211 616.315 70.7949L 616.516 68.8051C 610.418 68.189 605.226 69.2249 601.388 71.6718C 597.528 74.1328 595.117 77.9728 594.543 82.7609L 596.529 82.9991ZM 617.416 69.8L 617.416 50.24L 615.416 50.24L 615.416 69.8L 617.416 69.8ZM 616.416 49.24C 606.951 49.24 599.301 53.6192 594.677 61.3675L 596.394 62.3925C 600.65 55.2608 607.641 51.24 616.416 51.24L 616.416 49.24ZM 663.898 97.52L 664.864 97.2595L 664.565 96.1521L 663.508 96.599L 663.898 97.52ZM 655.858 99.68L 655.858 98.68L 655.842 98.68L 655.826 98.6805L 655.858 99.68ZM 649.978 68.36L 649.978 67.36L 648.978 67.36L 648.978 68.36L 649.978 68.36ZM 666.778 68.36L 666.778 69.36L 667.778 69.36L 667.778 68.36L 666.778 68.36ZM 666.778 54.2L 667.778 54.2L 667.778 53.2L 666.778 53.2L 666.778 54.2ZM 649.978 54.2L 648.978 54.2L 648.978 55.2L 649.978 55.2L 649.978 54.2ZM 649.978 36.2L 650.978 36.2L 650.978 35.2L 649.978 35.2L 649.978 36.2ZM 628.738 36.2L 628.738 35.2L 627.738 35.2L 627.738 36.2L 628.738 36.2ZM 628.738 54.2L 628.738 55.2L 629.738 55.2L 629.738 54.2L 628.738 54.2ZM 619.738 54.2L 619.738 53.2L 618.738 53.2L 618.738 54.2L 619.738 54.2ZM 619.738 68.36L 618.738 68.36L 618.738 69.36L 619.738 69.36L 619.738 68.36ZM 628.738 68.36L 629.738 68.36L 629.738 67.36L 628.738 67.36L 628.738 68.36ZM 650.458 116.96L 650.458 115.96L 650.449 115.96L 650.458 116.96ZM 667.978 112.64L 668.486 113.501L 669.142 113.115L 668.944 112.379L 667.978 112.64ZM 663.508 96.599C 660.408 97.9109 657.805 98.68 655.858 98.68L 655.858 100.68C 658.231 100.68 661.149 99.7691 664.288 98.441L 663.508 96.599ZM 655.826 98.6805C 654.168 98.734 653.022 98.2815 652.269 97.4388C 651.492 96.5692 650.978 95.1121 650.978 92.84L 648.978 92.84C 648.978 95.3679 649.544 97.3908 650.777 98.7712C 652.035 100.178 653.828 100.746 655.89 100.679L 655.826 98.6805ZM 650.978 92.84L 650.978 68.36L 648.978 68.36L 648.978 92.84L 650.978 92.84ZM 649.978 69.36L 666.778 69.36L 666.778 67.36L 649.978 67.36L 649.978 69.36ZM 667.778 68.36L 667.778 54.2L 665.778 54.2L 665.778 68.36L 667.778 68.36ZM 666.778 53.2L 649.978 53.2L 649.978 55.2L 666.778 55.2L 666.778 53.2ZM 650.978 54.2L 650.978 36.2L 648.978 36.2L 648.978 54.2L 650.978 54.2ZM 649.978 35.2L 628.738 35.2L 628.738 37.2L 649.978 37.2L 649.978 35.2ZM 627.738 36.2L 627.738 54.2L 629.738 54.2L 629.738 36.2L 627.738 36.2ZM 628.738 53.2L 619.738 53.2L 619.738 55.2L 628.738 55.2L 628.738 53.2ZM 618.738 54.2L 618.738 68.36L 620.738 68.36L 620.738 54.2L 618.738 54.2ZM 619.738 69.36L 628.738 69.36L 628.738 67.36L 619.738 67.36L 619.738 69.36ZM 627.738 68.36L 627.738 96.2L 629.738 96.2L 629.738 68.36L 627.738 68.36ZM 627.738 96.2C 627.738 103.158 630.106 108.661 634.198 112.403C 638.279 116.134 643.973 118.022 650.468 117.96L 650.449 115.96C 644.343 116.018 639.177 114.246 635.548 110.927C 631.93 107.619 629.738 102.682 629.738 96.2L 627.738 96.2ZM 650.458 117.96C 656.959 117.96 663.623 116.37 668.486 113.501L 667.47 111.779C 662.974 114.43 656.677 115.96 650.458 115.96L 650.458 117.96ZM 668.944 112.379L 664.864 97.2595L 662.933 97.7805L 667.013 112.901L 668.944 112.379ZM 677.161 57.32L 676.753 56.4071L 675.869 56.8021L 676.235 57.698L 677.161 57.32ZM 683.041 71.72L 682.115 72.098L 682.517 73.0832L 683.476 72.6206L 683.041 71.72ZM 714.841 77L 714.841 78L 715.841 78L 715.841 77L 714.841 77ZM 697.921 77L 697.921 76L 697.913 76L 697.906 76.0001L 697.921 77ZM 714.841 108.68L 715.841 108.68L 715.841 105.765L 714.052 108.066L 714.841 108.68ZM 714.841 116L 713.841 116L 713.841 117L 714.841 117L 714.841 116ZM 735.841 116L 735.841 117L 736.841 117L 736.841 116L 735.841 116ZM 735.841 73.76L 736.841 73.76L 736.841 73.7519L 735.841 73.76ZM 714.841 88.4L 715.841 88.4L 715.841 87.4L 714.841 87.4L 714.841 88.4ZM 714.841 94.04L 715.807 94.2991L 715.841 94.1718L 715.841 94.04L 714.841 94.04ZM 707.401 49.24C 696.59 49.2486 687.026 51.8178 676.753 56.4071L 677.569 58.2329C 687.696 53.7022 696.852 51.2314 707.401 51.24L 707.401 49.24ZM 676.235 57.698L 682.115 72.098L 683.967 71.342L 678.087 56.942L 676.235 57.698ZM 683.476 72.6206C 690.342 69.3058 697.272 67.56 702.481 67.56L 702.481 65.56C 696.89 65.56 689.66 67.4142 682.606 70.8194L 683.476 72.6206ZM 702.481 67.56C 706.433 67.56 709.267 68.4342 711.094 69.9042C 712.888 71.347 713.841 73.4671 713.841 76.28L 715.841 76.28C 715.841 72.9729 714.694 70.233 712.348 68.3458C 710.035 66.4858 706.689 65.56 702.481 65.56L 702.481 67.56ZM 713.841 76.28L 713.841 77L 715.841 77L 715.841 76.28L 713.841 76.28ZM 714.841 76L 697.921 76L 697.921 78L 714.841 78L 714.841 76ZM 697.906 76.0001C 689.741 76.122 683.283 77.9802 678.848 81.5128C 674.376 85.0741 672.081 90.2408 672.081 96.68L 674.081 96.68C 674.081 90.7592 676.166 86.2059 680.094 83.0772C 684.058 79.9198 690.021 78.118 697.936 77.9999L 697.906 76.0001ZM 672.081 96.68C 672.081 102.86 674.24 108.206 678.276 112.003C 682.307 115.796 688.119 117.96 695.281 117.96L 695.281 115.96C 688.522 115.96 683.235 113.924 679.646 110.547C 676.061 107.174 674.081 102.38 674.081 96.68L 672.081 96.68ZM 695.281 117.96C 704.269 117.96 711.196 114.995 715.63 109.294L 714.052 108.066C 710.086 113.165 703.813 115.96 695.281 115.96L 695.281 117.96ZM 713.841 108.68L 713.841 116L 715.841 116L 715.841 108.68L 713.841 108.68ZM 714.841 117L 735.841 117L 735.841 115L 714.841 115L 714.841 117ZM 736.841 116L 736.841 73.76L 734.841 73.76L 734.841 116L 736.841 116ZM 736.841 73.7519C 736.779 66.0622 734.039 59.8848 728.918 55.6494C 723.823 51.4348 716.489 49.24 707.401 49.24L 707.401 51.24C 716.193 51.24 723.019 53.3652 727.644 57.1906C 732.243 60.9952 734.783 66.5778 734.841 73.7681L 736.841 73.7519ZM 701.881 101.44C 699.286 101.44 697.349 100.763 696.079 99.6831C 694.826 98.6184 694.121 97.0796 694.121 95.12L 692.121 95.12C 692.121 97.6004 693.036 99.7216 694.783 101.207C 696.512 102.677 698.956 103.44 701.881 103.44L 701.881 101.44ZM 694.121 95.12C 694.121 93.0809 694.776 91.7342 695.966 90.8538C 697.215 89.9298 699.21 89.4 702.121 89.4L 702.121 87.4C 699.032 87.4 696.527 87.9502 694.776 89.2462C 692.966 90.5858 692.121 92.5991 692.121 95.12L 694.121 95.12ZM 702.121 89.4L 714.841 89.4L 714.841 87.4L 702.121 87.4L 702.121 89.4ZM 713.841 88.4L 713.841 94.04L 715.841 94.04L 715.841 88.4L 713.841 88.4ZM 713.875 93.7809C 712.704 98.1452 707.924 101.44 701.881 101.44L 701.881 103.44C 708.558 103.44 714.338 99.7748 715.807 94.2991L 713.875 93.7809ZM 794.351 26.96L 794.351 25.96L 793.351 25.96L 793.351 26.96L 794.351 26.96ZM 794.351 59.6L 793.561 60.2128L 795.351 62.5213L 795.351 59.6L 794.351 59.6ZM 794.351 107.6L 795.351 107.6L 795.351 104.568L 793.547 107.005L 794.351 107.6ZM 794.351 116L 793.351 116L 793.351 117L 794.351 117L 794.351 116ZM 815.711 116L 815.711 117L 816.711 117L 816.711 116L 815.711 116ZM 815.711 26.96L 816.711 26.96L 816.711 25.96L 815.711 25.96L 815.711 26.96ZM 793.351 26.96L 793.351 59.6L 795.351 59.6L 795.351 26.96L 793.351 26.96ZM 795.141 58.9872C 790.383 52.851 783.365 49.36 774.671 49.36L 774.671 51.36C 782.778 51.36 789.2 54.589 793.561 60.2128L 795.141 58.9872ZM 774.671 49.36C 765.474 49.36 757.756 52.7314 752.345 58.7036C 746.943 64.6667 743.911 73.1421 743.911 83.24L 745.911 83.24C 745.911 73.5379 748.82 65.5733 753.827 60.0464C 758.826 54.5286 765.988 51.36 774.671 51.36L 774.671 49.36ZM 743.911 83.24C 743.911 93.5156 746.971 102.17 752.447 108.268C 757.932 114.377 765.771 117.84 775.151 117.84L 775.151 115.84C 766.291 115.84 759.01 112.583 753.935 106.932C 748.851 101.27 745.911 93.1244 745.911 83.24L 743.911 83.24ZM 775.151 117.84C 783.604 117.84 790.512 114.469 795.155 108.195L 793.547 107.005C 789.31 112.731 783.019 115.84 775.151 115.84L 775.151 117.84ZM 793.351 107.6L 793.351 116L 795.351 116L 795.351 107.6L 793.351 107.6ZM 794.351 117L 815.711 117L 815.711 115L 794.351 115L 794.351 117ZM 816.711 116L 816.711 26.96L 814.711 26.96L 814.711 116L 816.711 116ZM 815.711 25.96L 794.351 25.96L 794.351 27.96L 815.711 27.96L 815.711 25.96ZM 780.431 99.04C 776.512 99.04 773.282 97.5089 771.018 94.8866C 768.744 92.2517 767.391 88.4485 767.391 83.84L 765.391 83.84C 765.391 88.8315 766.859 93.1283 769.504 96.1934C 772.161 99.2711 775.951 101.04 780.431 101.04L 780.431 99.04ZM 767.391 83.84C 767.391 79.2315 768.744 75.4283 771.018 72.7934C 773.282 70.1711 776.512 68.64 780.431 68.64L 780.431 66.64C 775.951 66.64 772.161 68.4089 769.504 71.4866C 766.859 74.5517 765.391 78.8485 765.391 83.84L 767.391 83.84ZM 780.431 68.64C 784.292 68.64 787.491 70.1421 789.739 72.7481C 791.997 75.3665 793.351 79.1691 793.351 83.84L 795.351 83.84C 795.351 78.7909 793.885 74.4935 791.254 71.4419C 788.611 68.3779 784.85 66.64 780.431 66.64L 780.431 68.64ZM 793.351 83.84C 793.351 88.4485 791.998 92.2531 789.737 94.8889C 787.487 97.5123 784.286 99.04 780.431 99.04L 780.431 101.04C 784.856 101.04 788.616 99.2677 791.255 96.1911C 793.884 93.1269 795.351 88.8315 795.351 83.84L 793.351 83.84ZM 862.694 49.36C 851.808 49.36 842.698 52.7264 836.3 58.7202C 829.897 64.7198 826.294 73.2749 826.294 83.48L 828.294 83.48C 828.294 73.7651 831.711 65.7602 837.668 60.1798C 843.63 54.5936 852.22 51.36 862.694 51.36L 862.694 49.36ZM 826.294 83.48C 826.294 93.7434 829.896 102.329 836.299 108.344C 842.697 114.354 851.808 117.72 862.694 117.72L 862.694 115.72C 852.22 115.72 843.631 112.486 837.669 106.886C 831.713 101.291 828.294 93.2566 828.294 83.48L 826.294 83.48ZM 862.694 117.72C 873.58 117.72 882.72 114.354 889.147 108.346C 895.581 102.331 899.214 93.746 899.214 83.48L 897.214 83.48C 897.214 93.254 893.767 101.289 887.781 106.884C 881.789 112.486 873.168 115.72 862.694 115.72L 862.694 117.72ZM 899.214 83.48C 899.214 73.2723 895.58 64.7171 889.146 58.7186C 882.719 52.7262 873.58 49.36 862.694 49.36L 862.694 51.36C 873.168 51.36 881.789 54.5938 887.782 60.1814C 893.769 65.7629 897.214 73.7677 897.214 83.48L 899.214 83.48ZM 862.694 68.64C 866.62 68.64 869.85 70.1457 872.11 72.7374C 874.382 75.3409 875.734 79.1119 875.734 83.72L 877.734 83.72C 877.734 78.7281 876.266 74.4591 873.618 71.4226C 870.958 68.3743 867.169 66.64 862.694 66.64L 862.694 68.64ZM 875.734 83.72C 875.734 88.3909 874.38 92.1921 872.109 94.8096C 869.848 97.4146 866.619 98.92 862.694 98.92L 862.694 100.92C 867.169 100.92 870.96 99.1854 873.619 96.1204C 876.268 93.0679 877.734 88.7691 877.734 83.72L 875.734 83.72ZM 862.694 98.92C 858.833 98.92 855.634 97.4179 853.386 94.8119C 851.128 92.1935 849.774 88.3909 849.774 83.72L 847.774 83.72C 847.774 88.7691 849.24 93.0665 851.872 96.1181C 854.514 99.1821 858.275 100.92 862.694 100.92L 862.694 98.92ZM 849.774 83.72C 849.774 79.1119 851.127 75.3395 853.385 72.7351C 855.632 70.1425 858.833 68.64 862.694 68.64L 862.694 66.64C 858.275 66.64 854.516 68.3775 851.874 71.4249C 849.242 74.4605 847.774 78.7281 847.774 83.72L 849.774 83.72ZM 909.457 50.24L 910.383 50.6186L 910.689 49.8696L 910.021 49.4138L 909.457 50.24ZM 904.058 63.44L 903.132 63.0614L 902.568 64.44L 904.058 64.44L 904.058 63.44ZM 914.138 63.44L 914.138 64.44L 914.663 64.44L 914.961 64.0068L 914.138 63.44ZM 923.138 50.36L 923.961 50.9268L 923.969 50.916L 923.976 50.905L 923.138 50.36ZM 915.697 31C 909.273 31 904.497 35.6399 904.497 42.2L 906.497 42.2C 906.497 36.7601 910.362 33 915.697 33L 915.697 31ZM 904.497 42.2C 904.497 45.7079 905.933 49.0472 908.894 51.0662L 910.021 49.4138C 907.702 47.8328 906.497 45.1721 906.497 42.2L 904.497 42.2ZM 908.532 49.8614L 903.132 63.0614L 904.983 63.8186L 910.383 50.6186L 908.532 49.8614ZM 904.058 64.44L 914.138 64.44L 914.138 62.44L 904.058 62.44L 904.058 64.44ZM 914.961 64.0068L 923.961 50.9268L 922.314 49.7932L 913.314 62.8732L 914.961 64.0068ZM 923.976 50.905C 925.574 48.4407 926.875 45.5317 926.898 42.2L 924.898 42.2C 924.92 45.1083 923.821 47.4793 922.299 49.815L 923.976 50.905ZM 926.898 42.2C 926.898 38.641 925.595 35.817 923.5 33.8891C 921.417 31.9731 918.615 31 915.697 31L 915.697 33C 918.18 33 920.478 33.8269 922.145 35.3609C 923.8 36.883 924.898 39.159 924.898 42.2L 926.898 42.2ZM 981.597 71.6L 981.134 72.4863L 982.024 72.9512L 982.485 72.0594L 981.597 71.6ZM 988.797 57.68L 989.685 58.1394L 990.116 57.3073L 989.314 56.8236L 988.797 57.68ZM 938.757 93.92L 939.327 93.0983L 938.369 92.4336L 937.858 93.4822L 938.757 93.92ZM 932.037 107.72L 931.138 107.282L 930.782 108.014L 931.426 108.511L 932.037 107.72ZM 988.797 96.08L 987.797 96.0747L 987.797 96.08L 988.797 96.08ZM 982.485 72.0594L 989.685 58.1394L 987.909 57.2206L 980.709 71.1406L 982.485 72.0594ZM 989.314 56.8236C 981.033 51.8417 971.293 49.1292 961.797 49.12L 961.797 51.12C 971.022 51.1108 980.241 53.6783 988.281 58.5364L 989.314 56.8236ZM 961.797 49.12C 954.029 49.12 947.139 51.0145 942.163 54.7341C 937.157 58.4773 934.157 64.0237 934.157 71.12L 936.157 71.12C 936.157 64.6563 938.858 59.7027 943.361 56.3359C 947.896 52.9455 954.325 51.12 961.797 51.12L 961.797 49.12ZM 934.157 71.12C 934.157 77.0201 936.375 81.2144 939.713 84.2752C 942.982 87.2545 947.353 89.1758 951.579 90.5932C 955.809 92.0095 959.976 92.983 963.053 94.1451C 964.578 94.7186 965.736 95.2807 966.554 95.9802C 967.308 96.6167 967.637 97.2595 967.637 98L 969.637 98C 969.637 96.5205 968.92 95.3596 967.843 94.4515C 966.83 93.6064 965.373 92.8833 963.759 92.2736C 960.558 91.0695 956.355 90.0855 952.215 88.6968C 948.071 87.3092 944.073 85.578 941.064 82.8011C 938.125 80.1056 936.157 76.4399 936.157 71.12L 934.157 71.12ZM 967.637 98C 967.637 98.8735 967.195 99.5644 966.225 100.091C 965.213 100.641 963.689 100.96 961.797 100.96L 961.797 102.96C 963.865 102.96 965.762 102.619 967.18 101.849C 968.64 101.056 969.637 99.7665 969.637 98L 967.637 98ZM 961.797 100.96C 954.842 100.96 946.637 98.1682 939.327 93.0983L 938.187 94.7417C 945.757 99.9918 954.352 102.96 961.797 102.96L 961.797 100.96ZM 937.858 93.4822L 931.138 107.282L 932.936 108.158L 939.656 94.3578L 937.858 93.4822ZM 931.426 108.511C 939.55 114.789 950.216 117.96 961.317 117.96L 961.317 115.96C 950.579 115.96 940.364 112.891 932.649 106.929L 931.426 108.511ZM 961.317 117.96C 969.381 117.96 976.477 116.037 981.585 112.324C 986.725 108.587 989.797 103.071 989.797 96.08L 987.797 96.08C 987.797 102.409 985.049 107.333 980.409 110.706C 975.737 114.103 969.093 115.96 961.317 115.96L 961.317 117.96ZM 989.797 96.0853C 989.829 90.1515 987.595 85.9111 984.219 82.8059C 980.911 79.7819 976.476 77.8151 972.181 76.3673C 967.883 74.9207 963.639 73.9305 960.504 72.7815C 958.949 72.2138 957.763 71.6609 956.927 70.9812C 956.152 70.3586 955.837 69.7519 955.837 69.08L 953.837 69.08C 953.837 70.5381 954.588 71.6676 955.675 72.5408C 956.703 73.3569 958.178 74.0593 959.817 74.6598C 963.067 75.847 967.336 76.8443 971.543 78.2627C 975.753 79.6799 979.816 81.4556 982.865 84.2779C 985.845 87.0189 987.826 90.7285 987.797 96.0747L 989.797 96.0853ZM 955.837 69.08C 955.837 68.0644 956.273 67.3559 957.077 66.853C 957.937 66.3158 959.256 66 960.957 66L 960.957 64C 959.059 64 957.318 64.3442 956.017 65.157C 954.662 66.0041 953.837 67.3356 953.837 69.08L 955.837 69.08ZM 960.957 66C 965.993 66 973.139 68.3096 981.134 72.4863L 982.06 70.7137C 973.976 66.4904 966.481 64 960.957 64L 960.957 66ZM 1076.33 30.28C 1049.8 30.28 1029.85 48.7858 1029.85 73.88L 1031.85 73.88C 1031.85 50.0142 1050.77 32.28 1076.33 32.28L 1076.33 30.28ZM 1029.85 73.88C 1029.85 99.0817 1049.78 117.96 1076.33 117.96L 1076.33 115.96C 1050.79 115.96 1031.85 97.8783 1031.85 73.88L 1029.85 73.88ZM 1076.33 117.96C 1102.87 117.96 1122.81 99.0817 1122.81 73.88L 1120.81 73.88C 1120.81 97.8783 1101.86 115.96 1076.33 115.96L 1076.33 117.96ZM 1122.81 73.88C 1122.81 48.9076 1102.86 30.28 1076.33 30.28L 1076.33 32.28C 1101.88 32.28 1120.81 50.1324 1120.81 73.88L 1122.81 73.88ZM 1076.57 51C 1088.57 51 1098.25 60.8279 1098.25 74L 1100.25 74C 1100.25 59.8121 1089.76 49 1076.57 49L 1076.57 51ZM 1098.25 74C 1098.25 87.1855 1088.56 97.24 1076.57 97.24L 1076.57 99.24C 1089.77 99.24 1100.25 88.1745 1100.25 74L 1098.25 74ZM 1076.57 97.24C 1064.66 97.24 1054.41 87.1543 1054.41 74L 1052.41 74C 1052.41 88.2057 1063.51 99.24 1076.57 99.24L 1076.57 97.24ZM 1054.41 74C 1054.41 60.8556 1064.53 51 1076.57 51L 1076.57 49C 1063.4 49 1052.41 59.7844 1052.41 74L 1054.41 74ZM 1172.53 45.68L 1171.94 46.4851L 1172.9 47.1943L 1173.43 46.1215L 1172.53 45.68ZM 1179.97 30.56L 1180.87 31.0015L 1181.28 30.1669L 1180.48 29.697L 1179.97 30.56ZM 1161.49 26L 1161.48 27L 1161.49 27L 1161.49 26ZM 1136.53 54.2L 1136.53 55.2L 1137.53 55.2L 1137.53 54.2L 1136.53 54.2ZM 1127.77 54.2L 1127.77 53.2L 1126.77 53.2L 1126.77 54.2L 1127.77 54.2ZM 1127.77 68.36L 1126.77 68.36L 1126.77 69.36L 1127.77 69.36L 1127.77 68.36ZM 1136.53 68.36L 1137.53 68.36L 1137.53 67.36L 1136.53 67.36L 1136.53 68.36ZM 1136.53 116L 1135.53 116L 1135.53 117L 1136.53 117L 1136.53 116ZM 1157.77 116L 1157.77 117L 1158.77 117L 1158.77 116L 1157.77 116ZM 1157.77 68.36L 1157.77 67.36L 1156.77 67.36L 1156.77 68.36L 1157.77 68.36ZM 1172.17 68.36L 1172.17 69.36L 1173.17 69.36L 1173.17 68.36L 1172.17 68.36ZM 1172.17 54.2L 1173.17 54.2L 1173.17 53.2L 1172.17 53.2L 1172.17 54.2ZM 1157.77 54.2L 1156.77 54.2L 1156.77 55.2L 1157.77 55.2L 1157.77 54.2ZM 1183.69 54.2L 1183.69 55.2L 1184.69 55.2L 1184.69 54.2L 1183.69 54.2ZM 1174.93 54.2L 1174.93 53.2L 1173.93 53.2L 1173.93 54.2L 1174.93 54.2ZM 1174.93 68.36L 1173.93 68.36L 1173.93 69.36L 1174.93 69.36L 1174.93 68.36ZM 1183.69 68.36L 1184.69 68.36L 1184.69 67.36L 1183.69 67.36L 1183.69 68.36ZM 1183.69 116L 1182.69 116L 1182.69 117L 1183.69 117L 1183.69 116ZM 1204.93 116L 1204.93 117L 1205.93 117L 1205.93 116L 1204.93 116ZM 1204.93 68.36L 1204.93 67.36L 1203.93 67.36L 1203.93 68.36L 1204.93 68.36ZM 1219.33 68.36L 1219.33 69.36L 1220.33 69.36L 1220.33 68.36L 1219.33 68.36ZM 1219.33 54.2L 1220.33 54.2L 1220.33 53.2L 1219.33 53.2L 1219.33 54.2ZM 1204.93 54.2L 1203.93 54.2L 1203.93 55.2L 1204.93 55.2L 1204.93 54.2ZM 1212.25 43.16L 1212.22 44.1596L 1212.24 44.16L 1212.25 44.16L 1212.25 43.16ZM 1220.65 45.56L 1220.19 46.4466L 1221.58 47.1748L 1221.65 45.6019L 1220.65 45.56ZM 1221.37 28.4L 1222.37 28.4419L 1222.4 27.7744L 1221.79 27.493L 1221.37 28.4ZM 1208.65 26L 1208.64 27L 1208.65 27L 1208.65 26ZM 1226.65 51.08L 1226.65 50.08L 1225.65 50.08L 1225.65 51.08L 1226.65 51.08ZM 1226.65 116L 1225.65 116L 1225.65 117L 1226.65 117L 1226.65 116ZM 1247.89 116L 1247.89 117L 1248.89 117L 1248.89 116L 1247.89 116ZM 1247.89 51.08L 1248.89 51.08L 1248.89 50.08L 1247.89 50.08L 1247.89 51.08ZM 1237.33 43.56C 1243.52 43.56 1248.05 39.0323 1248.05 32.84L 1246.05 32.84C 1246.05 37.9277 1242.42 41.56 1237.33 41.56L 1237.33 43.56ZM 1248.05 32.84C 1248.05 26.5359 1243.53 22 1237.33 22L 1237.33 24C 1242.41 24 1246.05 27.6241 1246.05 32.84L 1248.05 32.84ZM 1237.33 22C 1231.13 22 1226.61 26.5359 1226.61 32.84L 1228.61 32.84C 1228.61 27.6241 1232.25 24 1237.33 24L 1237.33 22ZM 1226.61 32.84C 1226.61 39.0323 1231.14 43.56 1237.33 43.56L 1237.33 41.56C 1232.24 41.56 1228.61 37.9277 1228.61 32.84L 1226.61 32.84ZM 1165.09 44.04C 1167.13 44.04 1169.81 44.9162 1171.94 46.4851L 1173.12 44.8749C 1170.69 43.0838 1167.61 42.04 1165.09 42.04L 1165.09 44.04ZM 1173.43 46.1215L 1180.87 31.0015L 1179.07 30.1185L 1171.63 45.2385L 1173.43 46.1215ZM 1180.48 29.697C 1175.37 26.7104 1168.11 25 1161.49 25L 1161.49 27C 1167.83 27 1174.73 28.6496 1179.47 31.423L 1180.48 29.697ZM 1161.5 25C 1154.24 24.9385 1147.75 26.9693 1143.06 30.9364C 1138.35 34.9196 1135.53 40.7867 1135.53 48.2L 1137.53 48.2C 1137.53 41.3333 1140.12 36.0404 1144.35 32.4636C 1148.6 28.8707 1154.59 26.9415 1161.48 27L 1161.5 25ZM 1135.53 48.2L 1135.53 54.2L 1137.53 54.2L 1137.53 48.2L 1135.53 48.2ZM 1136.53 53.2L 1127.77 53.2L 1127.77 55.2L 1136.53 55.2L 1136.53 53.2ZM 1126.77 54.2L 1126.77 68.36L 1128.77 68.36L 1128.77 54.2L 1126.77 54.2ZM 1127.77 69.36L 1136.53 69.36L 1136.53 67.36L 1127.77 67.36L 1127.77 69.36ZM 1135.53 68.36L 1135.53 116L 1137.53 116L 1137.53 68.36L 1135.53 68.36ZM 1136.53 117L 1157.77 117L 1157.77 115L 1136.53 115L 1136.53 117ZM 1158.77 116L 1158.77 68.36L 1156.77 68.36L 1156.77 116L 1158.77 116ZM 1157.77 69.36L 1172.17 69.36L 1172.17 67.36L 1157.77 67.36L 1157.77 69.36ZM 1173.17 68.36L 1173.17 54.2L 1171.17 54.2L 1171.17 68.36L 1173.17 68.36ZM 1172.17 53.2L 1157.77 53.2L 1157.77 55.2L 1172.17 55.2L 1172.17 53.2ZM 1158.77 54.2L 1158.77 50L 1156.77 50L 1156.77 54.2L 1158.77 54.2ZM 1158.77 50C 1158.77 47.8957 1159.46 46.4479 1160.52 45.5138C 1161.59 44.5633 1163.16 44.04 1165.09 44.04L 1165.09 42.04C 1162.82 42.04 1160.73 42.6567 1159.19 44.0162C 1157.64 45.3921 1156.77 47.4243 1156.77 50L 1158.77 50ZM 1182.69 48.2L 1182.69 54.2L 1184.69 54.2L 1184.69 48.2L 1182.69 48.2ZM 1183.69 53.2L 1174.93 53.2L 1174.93 55.2L 1183.69 55.2L 1183.69 53.2ZM 1173.93 54.2L 1173.93 68.36L 1175.93 68.36L 1175.93 54.2L 1173.93 54.2ZM 1174.93 69.36L 1183.69 69.36L 1183.69 67.36L 1174.93 67.36L 1174.93 69.36ZM 1182.69 68.36L 1182.69 116L 1184.69 116L 1184.69 68.36L 1182.69 68.36ZM 1183.69 117L 1204.93 117L 1204.93 115L 1183.69 115L 1183.69 117ZM 1205.93 116L 1205.93 68.36L 1203.93 68.36L 1203.93 116L 1205.93 116ZM 1204.93 69.36L 1219.33 69.36L 1219.33 67.36L 1204.93 67.36L 1204.93 69.36ZM 1220.33 68.36L 1220.33 54.2L 1218.33 54.2L 1218.33 68.36L 1220.33 68.36ZM 1219.33 53.2L 1204.93 53.2L 1204.93 55.2L 1219.33 55.2L 1219.33 53.2ZM 1205.93 54.2L 1205.93 50L 1203.93 50L 1203.93 54.2L 1205.93 54.2ZM 1205.93 50C 1205.93 47.8819 1206.6 46.4405 1207.63 45.5293C 1208.68 44.6041 1210.24 44.1044 1212.22 44.1596L 1212.28 42.1604C 1209.95 42.0956 1207.84 42.6759 1206.31 44.0307C 1204.76 45.3995 1203.93 47.4381 1203.93 50L 1205.93 50ZM 1212.25 44.16C 1214.56 44.16 1217.51 45.0511 1220.19 46.4466L 1221.11 44.6734C 1218.27 43.1889 1214.99 42.16 1212.25 42.16L 1212.25 44.16ZM 1221.65 45.6019L 1222.37 28.4419L 1220.37 28.3581L 1219.65 45.5181L 1221.65 45.6019ZM 1221.79 27.493C 1218.26 25.8535 1213.31 25 1208.65 25L 1208.65 27C 1213.12 27 1217.76 27.8265 1220.95 29.307L 1221.79 27.493ZM 1208.66 25C 1201.46 24.9385 1194.97 26.9382 1190.26 30.8891C 1185.54 34.857 1182.69 40.7251 1182.69 48.2L 1184.69 48.2C 1184.69 41.2749 1187.31 35.983 1191.55 32.4209C 1195.81 28.8418 1201.8 26.9415 1208.64 27L 1208.66 25ZM 1225.65 51.08L 1225.65 116L 1227.65 116L 1227.65 51.08L 1225.65 51.08ZM 1226.65 117L 1247.89 117L 1247.89 115L 1226.65 115L 1226.65 117ZM 1248.89 116L 1248.89 51.08L 1246.89 51.08L 1246.89 116L 1248.89 116ZM 1247.89 50.08L 1226.65 50.08L 1226.65 52.08L 1247.89 52.08L 1247.89 50.08ZM 1306.17 74.72L 1305.35 75.2855L 1305.87 76.051L 1306.68 75.5845L 1306.17 74.72ZM 1321.65 65.72L 1322.16 66.5845L 1323.02 66.0823L 1322.52 65.2181L 1321.65 65.72ZM 1321.89 101.12L 1322.78 101.58L 1323.22 100.729L 1322.39 100.252L 1321.89 101.12ZM 1306.17 92.12L 1306.67 91.2522L 1305.77 90.7363L 1305.29 91.656L 1306.17 92.12ZM 1306.68 75.5845L 1322.16 66.5845L 1321.15 64.8555L 1305.67 73.8555L 1306.68 75.5845ZM 1322.52 65.2181C 1316.67 55.1479 1306 49.36 1292.61 49.36L 1292.61 51.36C 1305.39 51.36 1315.35 56.8521 1320.79 66.2219L 1322.52 65.2181ZM 1292.61 49.36C 1282.31 49.36 1273.64 52.7684 1267.55 58.8311C 1261.45 64.8943 1258.01 73.5324 1258.01 83.84L 1260.01 83.84C 1260.01 73.9876 1263.29 65.8857 1268.96 60.2489C 1274.62 54.6116 1282.76 51.36 1292.61 51.36L 1292.61 49.36ZM 1258.01 83.84C 1258.01 93.9704 1261.43 102.46 1267.48 108.418C 1273.53 114.374 1282.13 117.72 1292.37 117.72L 1292.37 115.72C 1282.57 115.72 1274.5 112.526 1268.88 106.992C 1263.26 101.46 1260.01 93.5096 1260.01 83.84L 1258.01 83.84ZM 1292.37 117.72C 1306.45 117.72 1317.41 111.95 1322.78 101.58L 1321 100.66C 1316.06 110.21 1305.9 115.72 1292.37 115.72L 1292.37 117.72ZM 1322.39 100.252L 1306.67 91.2522L 1305.68 92.9878L 1321.4 101.988L 1322.39 100.252ZM 1305.29 91.656C 1302.84 96.3208 1298.78 98.44 1293.45 98.44L 1293.45 100.44C 1299.41 100.44 1304.22 97.9992 1307.06 92.584L 1305.29 91.656ZM 1293.45 98.44C 1289.91 98.44 1286.95 97.0087 1284.86 94.4961C 1282.76 91.9682 1281.49 88.2806 1281.49 83.72L 1279.49 83.72C 1279.49 88.6394 1280.86 92.8118 1283.32 95.7739C 1285.8 98.7513 1289.32 100.44 1293.45 100.44L 1293.45 98.44ZM 1281.49 83.72C 1281.49 79.2219 1282.76 75.5322 1284.86 72.9869C 1286.95 70.4564 1289.91 69 1293.45 69L 1293.45 67C 1289.31 67 1285.79 68.7236 1283.32 71.7131C 1280.86 74.6878 1279.49 78.8581 1279.49 83.72L 1281.49 83.72ZM 1293.45 69C 1298.63 69 1302.64 71.3424 1305.35 75.2855L 1307 74.1545C 1303.94 69.6976 1299.32 67 1293.45 67L 1293.45 69ZM 1331.68 51.08L 1331.68 50.08L 1330.68 50.08L 1330.68 51.08L 1331.68 51.08ZM 1331.68 116L 1330.68 116L 1330.68 117L 1331.68 117L 1331.68 116ZM 1352.92 116L 1352.92 117L 1353.92 117L 1353.92 116L 1352.92 116ZM 1352.92 51.08L 1353.92 51.08L 1353.92 50.08L 1352.92 50.08L 1352.92 51.08ZM 1342.36 22C 1336.16 22 1331.64 26.5359 1331.64 32.84L 1333.64 32.84C 1333.64 27.6241 1337.28 24 1342.36 24L 1342.36 22ZM 1331.64 32.84C 1331.64 39.0323 1336.16 43.56 1342.36 43.56L 1342.36 41.56C 1337.27 41.56 1333.64 37.9277 1333.64 32.84L 1331.64 32.84ZM 1342.36 43.56C 1348.55 43.56 1353.08 39.0323 1353.08 32.84L 1351.08 32.84C 1351.08 37.9277 1347.44 41.56 1342.36 41.56L 1342.36 43.56ZM 1353.08 32.84C 1353.08 26.5359 1348.56 22 1342.36 22L 1342.36 24C 1347.44 24 1351.08 27.6241 1351.08 32.84L 1353.08 32.84ZM 1330.68 51.08L 1330.68 116L 1332.68 116L 1332.68 51.08L 1330.68 51.08ZM 1331.68 117L 1352.92 117L 1352.92 115L 1331.68 115L 1331.68 117ZM 1353.92 116L 1353.92 51.08L 1351.92 51.08L 1351.92 116L 1353.92 116ZM 1352.92 50.08L 1331.68 50.08L 1331.68 52.08L 1352.92 52.08L 1352.92 50.08ZM 1368.33 57.32L 1367.92 56.4071L 1367.04 56.8021L 1367.41 57.698L 1368.33 57.32ZM 1374.21 71.72L 1373.29 72.098L 1373.69 73.0832L 1374.65 72.6206L 1374.21 71.72ZM 1406.01 77L 1406.01 78L 1407.01 78L 1407.01 77L 1406.01 77ZM 1389.09 77L 1389.09 76L 1389.09 76L 1389.08 76.0001L 1389.09 77ZM 1406.01 108.68L 1407.01 108.68L 1407.01 105.765L 1405.22 108.066L 1406.01 108.68ZM 1406.01 116L 1405.01 116L 1405.01 117L 1406.01 117L 1406.01 116ZM 1427.01 116L 1427.01 117L 1428.01 117L 1428.01 116L 1427.01 116ZM 1427.01 73.76L 1428.01 73.76L 1428.01 73.7519L 1427.01 73.76ZM 1406.01 88.4L 1407.01 88.4L 1407.01 87.4L 1406.01 87.4L 1406.01 88.4ZM 1406.01 94.04L 1406.98 94.2991L 1407.01 94.1718L 1407.01 94.04L 1406.01 94.04ZM 1398.57 49.24C 1387.76 49.2486 1378.2 51.8178 1367.92 56.4071L 1368.74 58.2329C 1378.87 53.7022 1388.02 51.2314 1398.57 51.24L 1398.57 49.24ZM 1367.41 57.698L 1373.29 72.098L 1375.14 71.342L 1369.26 56.942L 1367.41 57.698ZM 1374.65 72.6206C 1381.51 69.3058 1388.44 67.56 1393.65 67.56L 1393.65 65.56C 1388.06 65.56 1380.83 67.4142 1373.78 70.8194L 1374.65 72.6206ZM 1393.65 67.56C 1397.6 67.56 1400.44 68.4342 1402.27 69.9042C 1404.06 71.347 1405.01 73.4671 1405.01 76.28L 1407.01 76.28C 1407.01 72.9729 1405.87 70.233 1403.52 68.3458C 1401.21 66.4858 1397.86 65.56 1393.65 65.56L 1393.65 67.56ZM 1405.01 76.28L 1405.01 77L 1407.01 77L 1407.01 76.28L 1405.01 76.28ZM 1406.01 76L 1389.09 76L 1389.09 78L 1406.01 78L 1406.01 76ZM 1389.08 76.0001C 1380.91 76.122 1374.46 77.9802 1370.02 81.5128C 1365.55 85.0741 1363.25 90.2408 1363.25 96.68L 1365.25 96.68C 1365.25 90.7592 1367.34 86.2059 1371.27 83.0772C 1375.23 79.9198 1381.19 78.118 1389.11 77.9999L 1389.08 76.0001ZM 1363.25 96.68C 1363.25 102.86 1365.41 108.206 1369.45 112.003C 1373.48 115.796 1379.29 117.96 1386.45 117.96L 1386.45 115.96C 1379.69 115.96 1374.41 113.924 1370.82 110.547C 1367.23 107.174 1365.25 102.38 1365.25 96.68L 1363.25 96.68ZM 1386.45 117.96C 1395.44 117.96 1402.37 114.995 1406.8 109.294L 1405.22 108.066C 1401.26 113.165 1394.98 115.96 1386.45 115.96L 1386.45 117.96ZM 1405.01 108.68L 1405.01 116L 1407.01 116L 1407.01 108.68L 1405.01 108.68ZM 1406.01 117L 1427.01 117L 1427.01 115L 1406.01 115L 1406.01 117ZM 1428.01 116L 1428.01 73.76L 1426.01 73.76L 1426.01 116L 1428.01 116ZM 1428.01 73.7519C 1427.95 66.0622 1425.21 59.8848 1420.09 55.6494C 1414.99 51.4348 1407.66 49.24 1398.57 49.24L 1398.57 51.24C 1407.37 51.24 1414.19 53.3652 1418.82 57.1906C 1423.42 60.9952 1425.95 66.5778 1426.01 73.7681L 1428.01 73.7519ZM 1393.05 101.44C 1390.46 101.44 1388.52 100.763 1387.25 99.6831C 1386 98.6184 1385.29 97.0796 1385.29 95.12L 1383.29 95.12C 1383.29 97.6004 1384.21 99.7216 1385.96 101.207C 1387.68 102.677 1390.13 103.44 1393.05 103.44L 1393.05 101.44ZM 1385.29 95.12C 1385.29 93.0809 1385.95 91.7342 1387.14 90.8538C 1388.39 89.9298 1390.38 89.4 1393.29 89.4L 1393.29 87.4C 1390.2 87.4 1387.7 87.9502 1385.95 89.2462C 1384.14 90.5858 1383.29 92.5991 1383.29 95.12L 1385.29 95.12ZM 1393.29 89.4L 1406.01 89.4L 1406.01 87.4L 1393.29 87.4L 1393.29 89.4ZM 1405.01 88.4L 1405.01 94.04L 1407.01 94.04L 1407.01 88.4L 1405.01 88.4ZM 1405.05 93.7809C 1403.88 98.1452 1399.1 101.44 1393.05 101.44L 1393.05 103.44C 1399.73 103.44 1405.51 99.7748 1406.98 94.2991L 1405.05 93.7809ZM 1441.96 26.96L 1441.96 25.96L 1440.96 25.96L 1440.96 26.96L 1441.96 26.96ZM 1441.96 116L 1440.96 116L 1440.96 117L 1441.96 117L 1441.96 116ZM 1463.32 116L 1463.32 117L 1464.32 117L 1464.32 116L 1463.32 116ZM 1463.32 26.96L 1464.32 26.96L 1464.32 25.96L 1463.32 25.96L 1463.32 26.96ZM 1440.96 26.96L 1440.96 116L 1442.96 116L 1442.96 26.96L 1440.96 26.96ZM 1441.96 117L 1463.32 117L 1463.32 115L 1441.96 115L 1441.96 117ZM 1464.32 116L 1464.32 26.96L 1462.32 26.96L 1462.32 116L 1464.32 116ZM 1463.32 25.96L 1441.96 25.96L 1441.96 27.96L 1463.32 27.96L 1463.32 25.96ZM 1507.85 31.88L 1507.85 30.88L 1506.47 30.88L 1506.9 32.1918L 1507.85 31.88ZM 1535.45 116L 1534.5 116.312L 1534.72 117L 1535.45 117L 1535.45 116ZM 1558.01 116L 1558.01 117L 1558.77 117L 1558.97 116.265L 1558.01 116ZM 1573.61 59.24L 1574.57 58.9826L 1573.62 55.4117L 1572.64 58.975L 1573.61 59.24ZM 1588.73 116L 1587.76 116.257L 1587.96 117L 1588.73 117L 1588.73 116ZM 1611.41 116L 1611.41 117L 1612.13 117L 1612.36 116.313L 1611.41 116ZM 1639.13 31.88L 1640.08 32.193L 1640.51 30.88L 1639.13 30.88L 1639.13 31.88ZM 1616.57 31.88L 1616.57 30.88L 1615.79 30.88L 1615.6 31.628L 1616.57 31.88ZM 1600.73 92.72L 1599.76 92.9737L 1600.73 96.6749L 1601.69 92.972L 1600.73 92.72ZM 1584.77 31.88L 1585.73 31.6263L 1585.54 30.88L 1584.77 30.88L 1584.77 31.88ZM 1563.29 31.88L 1563.29 30.88L 1562.51 30.88L 1562.32 31.628L 1563.29 31.88ZM 1547.45 92.72L 1546.48 92.9737L 1547.45 96.6749L 1548.41 92.972L 1547.45 92.72ZM 1531.49 31.88L 1532.45 31.6263L 1532.26 30.88L 1531.49 30.88L 1531.49 31.88ZM 1506.9 32.1918L 1534.5 116.312L 1536.4 115.688L 1508.8 31.5682L 1506.9 32.1918ZM 1535.45 117L 1558.01 117L 1558.01 115L 1535.45 115L 1535.45 117ZM 1558.97 116.265L 1574.57 59.505L 1572.64 58.975L 1557.04 115.735L 1558.97 116.265ZM 1572.64 59.4974L 1587.76 116.257L 1589.69 115.743L 1574.57 58.9826L 1572.64 59.4974ZM 1588.73 117L 1611.41 117L 1611.41 115L 1588.73 115L 1588.73 117ZM 1612.36 116.313L 1640.08 32.193L 1638.18 31.567L 1610.46 115.687L 1612.36 116.313ZM 1639.13 30.88L 1616.57 30.88L 1616.57 32.88L 1639.13 32.88L 1639.13 30.88ZM 1615.6 31.628L 1599.76 92.468L 1601.69 92.972L 1617.53 32.132L 1615.6 31.628ZM 1601.69 92.4663L 1585.73 31.6263L 1583.8 32.1337L 1599.76 92.9737L 1601.69 92.4663ZM 1584.77 30.88L 1563.29 30.88L 1563.29 32.88L 1584.77 32.88L 1584.77 30.88ZM 1562.32 31.628L 1546.48 92.468L 1548.41 92.972L 1564.25 32.132L 1562.32 31.628ZM 1548.41 92.4663L 1532.45 31.6263L 1530.52 32.1337L 1546.48 92.9737L 1548.41 92.4663ZM 1531.49 30.88L 1507.85 30.88L 1507.85 32.88L 1531.49 32.88L 1531.49 30.88ZM 1696.18 105.2L 1696.93 105.864L 1697.56 105.159L 1696.89 104.493L 1696.18 105.2ZM 1685.02 94.04L 1685.73 93.3329L 1685.02 92.6258L 1684.32 93.3329L 1685.02 94.04ZM 1655.02 89.24L 1655.02 88.24L 1653.71 88.24L 1654.06 89.5085L 1655.02 89.24ZM 1700.14 89.24L 1700.14 90.24L 1701.09 90.24L 1701.14 89.3008L 1700.14 89.24ZM 1654.54 77.84L 1653.56 77.65L 1653.33 78.84L 1654.54 78.84L 1654.54 77.84ZM 1679.5 77.84L 1679.5 78.84L 1680.5 78.84L 1680.5 77.84L 1679.5 77.84ZM 1667.38 49.36C 1657.02 49.36 1648.3 52.7672 1642.16 58.8284C 1636.02 64.8909 1632.54 73.5298 1632.54 83.84L 1634.54 83.84C 1634.54 73.9902 1637.85 65.8891 1643.56 60.2516C 1649.27 54.6128 1657.47 51.36 1667.38 51.36L 1667.38 49.36ZM 1632.54 83.84C 1632.54 93.9658 1635.89 102.461 1642.04 108.423C 1648.19 114.383 1657.04 117.72 1667.86 117.72L 1667.86 115.72C 1657.45 115.72 1649.14 112.517 1643.44 106.987C 1637.73 101.459 1634.54 93.5142 1634.54 83.84L 1632.54 83.84ZM 1667.86 117.72C 1680.1 117.72 1690.11 113.553 1696.93 105.864L 1695.44 104.536C 1689.06 111.727 1679.63 115.72 1667.86 115.72L 1667.86 117.72ZM 1696.89 104.493L 1685.73 93.3329L 1684.32 94.7471L 1695.48 105.907L 1696.89 104.493ZM 1684.32 93.3329C 1680.17 97.4795 1675.02 99.64 1669.78 99.64L 1669.78 101.64C 1675.59 101.64 1681.24 99.2405 1685.73 94.7471L 1684.32 93.3329ZM 1669.78 99.64C 1662.92 99.64 1657.91 95.8678 1655.99 88.9715L 1654.06 89.5085C 1656.22 97.2522 1662.01 101.64 1669.78 101.64L 1669.78 99.64ZM 1655.02 90.24L 1700.14 90.24L 1700.14 88.24L 1655.02 88.24L 1655.02 90.24ZM 1701.14 89.3008C 1701.87 77.3199 1699.33 67.3219 1693.58 60.3018C 1687.82 53.2588 1678.96 49.36 1667.38 49.36L 1667.38 51.36C 1678.49 51.36 1686.73 55.0812 1692.04 61.5682C 1697.36 68.0781 1699.86 77.5201 1699.15 89.1792L 1701.14 89.3008ZM 1655.53 78.03C 1656.22 74.4544 1657.65 71.533 1659.66 69.5171C 1661.66 67.5165 1664.29 66.36 1667.5 66.36L 1667.5 64.36C 1663.76 64.36 1660.63 65.7235 1658.25 68.1029C 1655.88 70.467 1654.31 73.7856 1653.56 77.65L 1655.53 78.03ZM 1667.5 66.36C 1670.86 66.36 1673.59 67.5297 1675.48 69.5021C 1677.38 71.4784 1678.5 74.3371 1678.5 77.84L 1680.5 77.84C 1680.5 73.9029 1679.23 70.5216 1676.93 68.1179C 1674.62 65.7103 1671.35 64.36 1667.5 64.36L 1667.5 66.36ZM 1679.5 76.84L 1654.54 76.84L 1654.54 78.84L 1679.5 78.84L 1679.5 76.84ZM 1733.09 59.48L 1732.09 59.48L 1732.09 62.4013L 1733.88 60.0928L 1733.09 59.48ZM 1733.09 26.96L 1734.09 26.96L 1734.09 25.96L 1733.09 25.96L 1733.09 26.96ZM 1711.73 26.96L 1711.73 25.96L 1710.73 25.96L 1710.73 26.96L 1711.73 26.96ZM 1711.73 116L 1710.73 116L 1710.73 117L 1711.73 117L 1711.73 116ZM 1733.09 116L 1733.09 117L 1734.09 117L 1734.09 116L 1733.09 116ZM 1733.09 107.6L 1733.88 106.987L 1732.09 104.679L 1732.09 107.6L 1733.09 107.6ZM 1752.17 49.36C 1743.83 49.36 1737.05 52.7369 1732.3 58.8672L 1733.88 60.0928C 1738.24 54.4631 1744.43 51.36 1752.17 51.36L 1752.17 49.36ZM 1734.09 59.48L 1734.09 26.96L 1732.09 26.96L 1732.09 59.48L 1734.09 59.48ZM 1733.09 25.96L 1711.73 25.96L 1711.73 27.96L 1733.09 27.96L 1733.09 25.96ZM 1710.73 26.96L 1710.73 116L 1712.73 116L 1712.73 26.96L 1710.73 26.96ZM 1711.73 117L 1733.09 117L 1733.09 115L 1711.73 115L 1711.73 117ZM 1734.09 116L 1734.09 107.6L 1732.09 107.6L 1732.09 116L 1734.09 116ZM 1732.3 108.213C 1737.06 114.355 1744.08 117.72 1752.65 117.72L 1752.65 115.72C 1744.65 115.72 1738.24 112.605 1733.88 106.987L 1732.3 108.213ZM 1752.65 117.72C 1761.9 117.72 1769.62 114.35 1775.02 108.375C 1780.41 102.411 1783.41 93.9352 1783.41 83.84L 1781.41 83.84C 1781.41 93.5448 1778.53 101.509 1773.54 107.035C 1768.55 112.55 1761.39 115.72 1752.65 115.72L 1752.65 117.72ZM 1783.41 83.84C 1783.41 73.5616 1780.32 64.9366 1774.83 58.8689C 1769.33 52.7923 1761.49 49.36 1752.17 49.36L 1752.17 51.36C 1760.97 51.36 1768.25 54.5877 1773.34 60.2111C 1778.44 65.8434 1781.41 73.9584 1781.41 83.84L 1783.41 83.84ZM 1746.89 98.44C 1743.09 98.44 1739.92 96.9409 1737.69 94.3472C 1735.44 91.7419 1734.09 87.9681 1734.09 83.36L 1732.09 83.36C 1732.09 88.3519 1733.56 92.6181 1736.17 95.6528C 1738.8 98.6991 1742.53 100.44 1746.89 100.44L 1746.89 98.44ZM 1734.09 83.36C 1734.09 78.7515 1735.44 74.9455 1737.69 72.3088C 1739.93 69.6843 1743.1 68.16 1746.89 68.16L 1746.89 66.16C 1742.52 66.16 1738.79 67.9357 1736.17 71.0112C 1733.56 74.0745 1732.09 78.3685 1732.09 83.36L 1734.09 83.36ZM 1746.89 68.16C 1750.81 68.16 1754.04 69.6911 1756.3 72.3134C 1758.58 74.9483 1759.93 78.7515 1759.93 83.36L 1761.93 83.36C 1761.93 78.3685 1760.46 74.0717 1757.82 71.0066C 1755.16 67.9289 1751.37 66.16 1746.89 66.16L 1746.89 68.16ZM 1759.93 83.36C 1759.93 87.9681 1758.58 91.7391 1756.31 94.3426C 1754.04 96.9343 1750.81 98.44 1746.89 98.44L 1746.89 100.44C 1751.36 100.44 1755.15 98.7057 1757.81 95.6574C 1760.46 92.6209 1761.93 88.3519 1761.93 83.36L 1759.93 83.36ZM 1836.71 71.6L 1836.25 72.4863L 1837.14 72.9512L 1837.6 72.0594L 1836.71 71.6ZM 1843.91 57.68L 1844.8 58.1394L 1845.23 57.3073L 1844.43 56.8236L 1843.91 57.68ZM 1793.87 93.92L 1794.44 93.0983L 1793.49 92.4336L 1792.98 93.4822L 1793.87 93.92ZM 1787.15 107.72L 1786.26 107.282L 1785.9 108.014L 1786.54 108.511L 1787.15 107.72ZM 1843.91 96.08L 1842.91 96.0747L 1842.91 96.08L 1843.91 96.08ZM 1837.6 72.0594L 1844.8 58.1394L 1843.03 57.2206L 1835.83 71.1406L 1837.6 72.0594ZM 1844.43 56.8236C 1836.15 51.8417 1826.41 49.1292 1816.91 49.12L 1816.91 51.12C 1826.14 51.1108 1835.36 53.6783 1843.4 58.5364L 1844.43 56.8236ZM 1816.91 49.12C 1809.15 49.12 1802.26 51.0145 1797.28 54.7341C 1792.27 58.4773 1789.27 64.0237 1789.27 71.12L 1791.27 71.12C 1791.27 64.6563 1793.97 59.7027 1798.48 56.3359C 1803.01 52.9455 1809.44 51.12 1816.91 51.12L 1816.91 49.12ZM 1789.27 71.12C 1789.27 77.0201 1791.49 81.2144 1794.83 84.2752C 1798.1 87.2545 1802.47 89.1758 1806.7 90.5932C 1810.93 92.0095 1815.09 92.983 1818.17 94.1451C 1819.7 94.7186 1820.85 95.2807 1821.67 95.9802C 1822.43 96.6167 1822.75 97.2595 1822.75 98L 1824.75 98C 1824.75 96.5205 1824.04 95.3596 1822.96 94.4515C 1821.95 93.6064 1820.49 92.8833 1818.88 92.2736C 1815.68 91.0695 1811.47 90.0855 1807.33 88.6968C 1803.19 87.3092 1799.19 85.578 1796.18 82.8011C 1793.24 80.1056 1791.27 76.4399 1791.27 71.12L 1789.27 71.12ZM 1822.75 98C 1822.75 98.8735 1822.31 99.5644 1821.34 100.091C 1820.33 100.641 1818.81 100.96 1816.91 100.96L 1816.91 102.96C 1818.98 102.96 1820.88 102.619 1822.3 101.849C 1823.76 101.056 1824.75 99.7665 1824.75 98L 1822.75 98ZM 1816.91 100.96C 1809.96 100.96 1801.75 98.1682 1794.44 93.0983L 1793.3 94.7417C 1800.87 99.9918 1809.47 102.96 1816.91 102.96L 1816.91 100.96ZM 1792.98 93.4822L 1786.26 107.282L 1788.05 108.158L 1794.77 94.3578L 1792.98 93.4822ZM 1786.54 108.511C 1794.67 114.789 1805.33 117.96 1816.43 117.96L 1816.43 115.96C 1805.7 115.96 1795.48 112.891 1787.77 106.929L 1786.54 108.511ZM 1816.43 117.96C 1824.5 117.96 1831.59 116.037 1836.7 112.324C 1841.84 108.587 1844.91 103.071 1844.91 96.08L 1842.91 96.08C 1842.91 102.409 1840.17 107.333 1835.53 110.706C 1830.85 114.103 1824.21 115.96 1816.43 115.96L 1816.43 117.96ZM 1844.91 96.0853C 1844.95 90.1515 1842.71 85.9111 1839.34 82.8059C 1836.03 79.7819 1831.59 77.8151 1827.3 76.3673C 1823 74.9207 1818.76 73.9305 1815.62 72.7815C 1814.07 72.2138 1812.88 71.6609 1812.04 70.9812C 1811.27 70.3586 1810.95 69.7519 1810.95 69.08L 1808.95 69.08C 1808.95 70.5381 1809.7 71.6676 1810.79 72.5408C 1811.82 73.3569 1813.3 74.0593 1814.93 74.6598C 1818.18 75.847 1822.45 76.8443 1826.66 78.2627C 1830.87 79.6799 1834.93 81.4556 1837.98 84.2779C 1840.96 87.0189 1842.94 90.7285 1842.91 96.0747L 1844.91 96.0853ZM 1810.95 69.08C 1810.95 68.0644 1811.39 67.3559 1812.19 66.853C 1813.05 66.3158 1814.37 66 1816.07 66L 1816.07 64C 1814.18 64 1812.43 64.3442 1811.13 65.157C 1809.78 66.0041 1808.95 67.3356 1808.95 69.08L 1810.95 69.08ZM 1816.07 66C 1821.11 66 1828.26 68.3096 1836.25 72.4863L 1837.18 70.7137C 1829.09 66.4904 1821.6 64 1816.07 64L 1816.07 66ZM 1855.39 51.08L 1855.39 50.08L 1854.39 50.08L 1854.39 51.08L 1855.39 51.08ZM 1855.39 116L 1854.39 116L 1854.39 117L 1855.39 117L 1855.39 116ZM 1876.63 116L 1876.63 117L 1877.63 117L 1877.63 116L 1876.63 116ZM 1876.63 51.08L 1877.63 51.08L 1877.63 50.08L 1876.63 50.08L 1876.63 51.08ZM 1866.07 22C 1859.87 22 1855.35 26.5359 1855.35 32.84L 1857.35 32.84C 1857.35 27.6241 1860.99 24 1866.07 24L 1866.07 22ZM 1855.35 32.84C 1855.35 39.0323 1859.87 43.56 1866.07 43.56L 1866.07 41.56C 1860.98 41.56 1857.35 37.9277 1857.35 32.84L 1855.35 32.84ZM 1866.07 43.56C 1872.26 43.56 1876.79 39.0323 1876.79 32.84L 1874.79 32.84C 1874.79 37.9277 1871.15 41.56 1866.07 41.56L 1866.07 43.56ZM 1876.79 32.84C 1876.79 26.5359 1872.27 22 1866.07 22L 1866.07 24C 1871.15 24 1874.79 27.6241 1874.79 32.84L 1876.79 32.84ZM 1854.39 51.08L 1854.39 116L 1856.39 116L 1856.39 51.08L 1854.39 51.08ZM 1855.39 117L 1876.63 117L 1876.63 115L 1855.39 115L 1855.39 117ZM 1877.63 116L 1877.63 51.08L 1875.63 51.08L 1875.63 116L 1877.63 116ZM 1876.63 50.08L 1855.39 50.08L 1855.39 52.08L 1876.63 52.08L 1876.63 50.08ZM 1931.16 97.52L 1932.13 97.2595L 1931.83 96.1521L 1930.77 96.599L 1931.16 97.52ZM 1923.12 99.68L 1923.12 98.68L 1923.11 98.68L 1923.09 98.6805L 1923.12 99.68ZM 1917.24 68.36L 1917.24 67.36L 1916.24 67.36L 1916.24 68.36L 1917.24 68.36ZM 1934.04 68.36L 1934.04 69.36L 1935.04 69.36L 1935.04 68.36L 1934.04 68.36ZM 1934.04 54.2L 1935.04 54.2L 1935.04 53.2L 1934.04 53.2L 1934.04 54.2ZM 1917.24 54.2L 1916.24 54.2L 1916.24 55.2L 1917.24 55.2L 1917.24 54.2ZM 1917.24 36.2L 1918.24 36.2L 1918.24 35.2L 1917.24 35.2L 1917.24 36.2ZM 1896 36.2L 1896 35.2L 1895 35.2L 1895 36.2L 1896 36.2ZM 1896 54.2L 1896 55.2L 1897 55.2L 1897 54.2L 1896 54.2ZM 1887 54.2L 1887 53.2L 1886 53.2L 1886 54.2L 1887 54.2ZM 1887 68.36L 1886 68.36L 1886 69.36L 1887 69.36L 1887 68.36ZM 1896 68.36L 1897 68.36L 1897 67.36L 1896 67.36L 1896 68.36ZM 1917.72 116.96L 1917.72 115.96L 1917.71 115.96L 1917.72 116.96ZM 1935.24 112.64L 1935.75 113.501L 1936.41 113.115L 1936.21 112.379L 1935.24 112.64ZM 1930.77 96.599C 1927.67 97.9109 1925.07 98.68 1923.12 98.68L 1923.12 100.68C 1925.5 100.68 1928.41 99.7691 1931.55 98.441L 1930.77 96.599ZM 1923.09 98.6805C 1921.43 98.734 1920.29 98.2815 1919.53 97.4388C 1918.76 96.5692 1918.24 95.1121 1918.24 92.84L 1916.24 92.84C 1916.24 95.3679 1916.81 97.3908 1918.04 98.7712C 1919.3 100.178 1921.09 100.746 1923.16 100.679L 1923.09 98.6805ZM 1918.24 92.84L 1918.24 68.36L 1916.24 68.36L 1916.24 92.84L 1918.24 92.84ZM 1917.24 69.36L 1934.04 69.36L 1934.04 67.36L 1917.24 67.36L 1917.24 69.36ZM 1935.04 68.36L 1935.04 54.2L 1933.04 54.2L 1933.04 68.36L 1935.04 68.36ZM 1934.04 53.2L 1917.24 53.2L 1917.24 55.2L 1934.04 55.2L 1934.04 53.2ZM 1918.24 54.2L 1918.24 36.2L 1916.24 36.2L 1916.24 54.2L 1918.24 54.2ZM 1917.24 35.2L 1896 35.2L 1896 37.2L 1917.24 37.2L 1917.24 35.2ZM 1895 36.2L 1895 54.2L 1897 54.2L 1897 36.2L 1895 36.2ZM 1896 53.2L 1887 53.2L 1887 55.2L 1896 55.2L 1896 53.2ZM 1886 54.2L 1886 68.36L 1888 68.36L 1888 54.2L 1886 54.2ZM 1887 69.36L 1896 69.36L 1896 67.36L 1887 67.36L 1887 69.36ZM 1895 68.36L 1895 96.2L 1897 96.2L 1897 68.36L 1895 68.36ZM 1895 96.2C 1895 103.158 1897.37 108.661 1901.46 112.403C 1905.54 116.134 1911.24 118.022 1917.73 117.96L 1917.71 115.96C 1911.61 116.018 1906.44 114.246 1902.81 110.927C 1899.2 107.619 1897 102.682 1897 96.2L 1895 96.2ZM 1917.72 117.96C 1924.22 117.96 1930.89 116.37 1935.75 113.501L 1934.74 111.779C 1930.24 114.43 1923.94 115.96 1917.72 115.96L 1917.72 117.96ZM 1936.21 112.379L 1932.13 97.2595L 1930.2 97.7805L 1934.28 112.901L 1936.21 112.379ZM 2002.39 105.2L 2003.14 105.864L 2003.77 105.159L 2003.1 104.493L 2002.39 105.2ZM 1991.23 94.04L 1991.94 93.3329L 1991.23 92.6258L 1990.53 93.3329L 1991.23 94.04ZM 1961.23 89.24L 1961.23 88.24L 1959.92 88.24L 1960.27 89.5085L 1961.23 89.24ZM 2006.36 89.24L 2006.36 90.24L 2007.3 90.24L 2007.35 89.3008L 2006.36 89.24ZM 1960.76 77.84L 1959.77 77.65L 1959.54 78.84L 1960.76 78.84L 1960.76 77.84ZM 1985.71 77.84L 1985.71 78.84L 1986.71 78.84L 1986.71 77.84L 1985.71 77.84ZM 1973.6 49.36C 1963.23 49.36 1954.51 52.7672 1948.37 58.8284C 1942.23 64.8909 1938.76 73.5298 1938.76 83.84L 1940.76 83.84C 1940.76 73.9902 1944.06 65.8891 1949.77 60.2516C 1955.48 54.6128 1963.68 51.36 1973.6 51.36L 1973.6 49.36ZM 1938.76 83.84C 1938.76 93.9658 1942.1 102.461 1948.25 108.423C 1954.4 114.383 1963.25 117.72 1974.08 117.72L 1974.08 115.72C 1963.66 115.72 1955.35 112.517 1949.65 106.987C 1943.95 101.459 1940.76 93.5142 1940.76 83.84L 1938.76 83.84ZM 1974.08 117.72C 1986.31 117.72 1996.32 113.553 2003.14 105.864L 2001.65 104.536C 1995.27 111.727 1985.84 115.72 1974.08 115.72L 1974.08 117.72ZM 2003.1 104.493L 1991.94 93.3329L 1990.53 94.7471L 2001.69 105.907L 2003.1 104.493ZM 1990.53 93.3329C 1986.38 97.4795 1981.23 99.64 1975.99 99.64L 1975.99 101.64C 1981.8 101.64 1987.45 99.2405 1991.94 94.7471L 1990.53 93.3329ZM 1975.99 99.64C 1969.13 99.64 1964.12 95.8678 1962.2 88.9715L 1960.27 89.5085C 1962.43 97.2522 1968.22 101.64 1975.99 101.64L 1975.99 99.64ZM 1961.23 90.24L 2006.36 90.24L 2006.36 88.24L 1961.23 88.24L 1961.23 90.24ZM 2007.35 89.3008C 2008.08 77.3199 2005.54 67.3219 1999.79 60.3018C 1994.03 53.2588 1985.17 49.36 1973.6 49.36L 1973.6 51.36C 1984.7 51.36 1992.94 55.0812 1998.25 61.5682C 2003.57 68.0781 2006.07 77.5201 2005.36 89.1792L 2007.35 89.3008ZM 1961.74 78.03C 1962.43 74.4544 1963.86 71.533 1965.87 69.5171C 1967.87 67.5165 1970.5 66.36 1973.71 66.36L 1973.71 64.36C 1969.97 64.36 1966.84 65.7235 1964.46 68.1029C 1962.09 70.467 1960.52 73.7856 1959.77 77.65L 1961.74 78.03ZM 1973.71 66.36C 1977.07 66.36 1979.8 67.5297 1981.69 69.5021C 1983.59 71.4784 1984.71 74.3371 1984.71 77.84L 1986.71 77.84C 1986.71 73.9029 1985.44 70.5216 1983.14 68.1179C 1980.83 65.7103 1977.56 64.36 1973.71 64.36L 1973.71 66.36ZM 1985.71 76.84L 1960.76 76.84L 1960.76 78.84L 1985.71 78.84L 1985.71 76.84Z"/>
</defs>
</svg>
