<?xml version="1.0" encoding="utf-8"?>
<!-- Generator: Adobe Illustrator 18.0.0, SVG Export Plug-In . SVG Version: 6.00 Build 0)  -->
<!DOCTYPE svg PUBLIC "-//W3C//DTD SVG 1.1//EN" "http://www.w3.org/Graphics/SVG/1.1/DTD/svg11.dtd">
<svg version="1.1" id="Capa_1" xmlns="http://www.w3.org/2000/svg" xmlns:xlink="http://www.w3.org/1999/xlink" x="0px" y="0px"
	 width="428.6px" height="428.6px" viewBox="0 0 428.6 428.6" enable-background="new 0 0 428.6 428.6" xml:space="preserve">
<g>
	<path fill="#FFFFFF" d="M428.6,348.2c0,44.4-36,80.4-80.4,80.4H80.4C36,428.6,0,392.6,0,348.2V80.4C0,36,36,0,80.4,0h267.9
		c44.4,0,80.4,36,80.4,80.4V348.2z M254.2,198.9h-101v36.8h60.5c-2.2,15.6-18.1,46-60.5,46c-36.8,0-66.7-30.1-66.7-67.5
		c0-37.4,29.9-67.5,66.7-67.5c20.6,0,34.6,8.6,42.7,16.5l29-28.2c-18.7-17.3-43-27.9-71.7-27.9c-59.4,0-107.1,48-107.1,107.1
		c0,59.2,47.7,107.1,107.1,107.1c61.7,0,102.7-43.5,102.7-104.6C255.9,209.8,255,204.2,254.2,198.9z M382.5,229.6v-30.7h-30.4v-30.7
		h-30.7v30.7h-30.7v30.7h30.7v30.7h30.7v-30.7H382.5z"/>
</g>
</svg>
