<svg width="3000" height="1700" viewBox="0 0 3000 1700" version="1.1" xmlns="http://www.w3.org/2000/svg" xmlns:xlink="http://www.w3.org/1999/xlink">
<title>Grafo</title>
<desc>Created using Figma</desc>
<g id="Canvas" transform="translate(-22 -275)">
 clip-path="url(#clip-0)"<g id="Grafo">
<path d="M 22 275L 3022 275L 3022 1975L 22 1975L 22 275Z" fill="#FFFFFF"/>
<g id="Rectangle">
<use xlink:href="#path0_fill" transform="translate(22 275)" fill="#21547A"/>
</g>
<g id="Group">
<g id="Rectangle 2">
<mask id="mask0_outline_ins">
<use xlink:href="#path1_fill" fill="white" transform="translate(1272 765)"/>
</mask>
<g mask="url(#mask0_outline_ins)">
<use xlink:href="#path2_stroke_2x" transform="translate(1272 765)" fill="#FAFDBA"/>
</g>
</g>
<g id="Rectangle 2">
<use xlink:href="#path3_fill" transform="translate(1327 840)" fill="#FFFFFF"/>
<mask id="mask1_outline_ins">
<use xlink:href="#path3_fill" fill="white" transform="translate(1327 840)"/>
</mask>
<g mask="url(#mask1_outline_ins)">
<use xlink:href="#path4_stroke_2x" transform="translate(1327 840)" fill="#FAFDBA"/>
</g>
</g>
<g id="Ellipse">
<use xlink:href="#path5_fill" transform="translate(1485 1365)" fill="#FAFDBA"/>
</g>
</g>
<g id="Group">
<g id="Ellipse">
<use xlink:href="#path6_fill" transform="translate(2177 522)" fill="#FFFFFF"/>
</g>
<g id="Ellipse">
<use xlink:href="#path6_fill" transform="translate(2827 522)" fill="#FFFFFF"/>
</g>
<g id="Ellipse">
<use xlink:href="#path5_fill" transform="translate(2389 690)" fill="#FFFFFF"/>
</g>
<g id="Ellipse">
<use xlink:href="#path5_fill" transform="translate(2059 690)" fill="#FFFFFF"/>
</g>
<g id="Ellipse">
<use xlink:href="#path7_fill" transform="translate(2569 559)" fill="#FFFFFF"/>
</g>
<g id="Ellipse">
<use xlink:href="#path7_fill" transform="translate(2719 413)" fill="#FFFFFF"/>
</g>
<g id="Ellipse">
<use xlink:href="#path8_fill" transform="translate(1872 335)" fill="#FFFFFF"/>
</g>
</g>
<g id="Group">
<g id="Ellipse">
<use xlink:href="#path6_fill" transform="translate(159 397)" fill="#FFFFFF"/>
</g>
<g id="Ellipse">
<use xlink:href="#path9_fill" transform="translate(616 690)" fill="#FFFFFF"/>
</g>
<g id="Ellipse">
<use xlink:href="#path5_fill" transform="translate(209 690)" fill="#FFFFFF"/>
</g>
<g id="Ellipse">
<use xlink:href="#path10_fill" transform="translate(796 559)" fill="#FFFFFF"/>
</g>
<g id="Ellipse">
<use xlink:href="#path10_fill" transform="translate(405 627)" fill="#FFFFFF"/>
</g>
<g id="Ellipse">
<use xlink:href="#path6_fill" transform="translate(734 366)" fill="#FFFFFF"/>
</g>
<g id="Ellipse">
<use xlink:href="#path8_fill" transform="translate(871 665)" fill="#FFFFFF"/>
</g>
<g id="Ellipse">
<use xlink:href="#path5_fill" transform="translate(946 534)" fill="#FFFFFF"/>
</g>
<g id="Ellipse">
<use xlink:href="#path11_fill" transform="translate(551 479)" fill="#FFFFFF"/>
</g>
<g id="Ellipse">
<use xlink:href="#path12_fill" transform="translate(1120 397)" fill="#FFFFFF"/>
</g>
</g>
<g id="Group">
<g id="Ellipse">
<use xlink:href="#path13_fill" transform="translate(2087 1514)" fill="#FFFFFF"/>
</g>
<g id="Ellipse">
<use xlink:href="#path5_fill" transform="translate(2337 1410)" fill="#FFFFFF"/>
</g>
<g id="Ellipse">
<use xlink:href="#path5_fill" transform="translate(2725 1714)" fill="#FFFFFF"/>
</g>
<g id="Ellipse">
<use xlink:href="#path7_fill" transform="translate(2007 1410)" fill="#FFFFFF"/>
</g>
<g id="Ellipse">
<use xlink:href="#path14_fill" transform="translate(2529 1360)" fill="#FFFFFF"/>
</g>
<g id="Ellipse">
<use xlink:href="#path14_fill" transform="translate(2122 1149)" fill="#FFFFFF"/>
</g>
</g>
<g id="Group">
<g id="Ellipse">
<use xlink:href="#path13_fill" transform="matrix(-0.854548 -0.519372 0.519372 -0.854548 927.542 1700.58)" fill="#FFFFFF"/>
</g>
<g id="Ellipse">
<use xlink:href="#path5_fill" transform="matrix(-0.854548 -0.519372 0.519372 -0.854548 659.891 1659.61)" fill="#FFFFFF"/>
</g>
<g id="Ellipse">
<use xlink:href="#path5_fill" transform="matrix(-0.854548 -0.519372 0.519372 -0.854548 659.891 1391.04)" fill="#FFFFFF"/>
</g>
<g id="Ellipse">
<use xlink:href="#path5_fill" transform="matrix(-0.854548 -0.519372 0.519372 -0.854548 486.215 1198.31)" fill="#FFFFFF"/>
</g>
<g id="Ellipse">
<use xlink:href="#path7_fill" transform="matrix(-0.854548 -0.519372 0.519372 -0.854548 941.892 1831)" fill="#FFFFFF"/>
</g>
<g id="Ellipse">
<use xlink:href="#path14_fill" transform="matrix(-0.854548 -0.519372 0.519372 -0.854548 469.849 1602.62)" fill="#FFFFFF"/>
</g>
<g id="Ellipse 2">
<use xlink:href="#path15_fill" transform="translate(1121 1564)" fill="#FFFFFF"/>
</g>
</g>
<g id="Vector">
<use xlink:href="#path16_stroke" transform="translate(219 412)" fill="#FFFFFF"/>
</g>
<g id="Vector 2">
<use xlink:href="#path17_stroke" transform="translate(443 1148.5)" fill="#FFFFFF"/>
</g>
<g id="Vector 3">
<use xlink:href="#path18_stroke" transform="translate(2030.5 1223.5)" fill="#FFFFFF"/>
</g>
<g id="Vector 4">
<use xlink:href="#path19_stroke" transform="translate(1990.5 439)" fill="#FFFFFF"/>
</g>
<g id="Polygon">
<use xlink:href="#path20_fill" transform="matrix(-0.563821 0.825897 -0.825897 -0.563821 1412.92 1021.47)" fill="#FFFFFF"/>
</g>
<g id="Polygon">
<use xlink:href="#path20_fill" transform="matrix(0.91922 0.393745 -0.393745 0.91922 1341.48 1217)" fill="#FFFFFF"/>
</g>
<g id="Polygon">
<use xlink:href="#path21_fill" transform="matrix(-0.813702 -0.581282 0.581282 -0.813702 1720.41 972.827)" fill="#FFFFFF"/>
</g>
<g id="Polygon">
<use xlink:href="#path22_fill" transform="matrix(-0.032823 -0.999461 0.999461 -0.032823 1630.92 1273.55)" fill="#FFFFFF"/>
</g>
<g id="&#239;&#128;&#145;">
<use xlink:href="#path23_fill" transform="translate(1436 990)" fill="#6FCF97"/>
</g>
</g>
</g>
<defs>
<path id="path0_fill" d="M 0 0L 3000 0L 3000 1700L 0 1700L 0 0Z"/>
<path id="path1_fill" d="M 0 50C 0 22.3858 22.3858 0 50 0L 450 0C 477.614 0 500 22.3858 500 50L 500 670C 500 697.614 477.614 720 450 720L 50 720C 22.3858 720 0 697.614 0 670L 0 50Z"/>
<path id="path2_stroke_2x" d="M 50 20L 450 20L 450 -20L 50 -20L 50 20ZM 480 50L 480 670L 520 670L 520 50L 480 50ZM 450 700L 50 700L 50 740L 450 740L 450 700ZM 20 670L 20 50L -20 50L -20 670L 20 670ZM 50 -20C 11.3401 -20 -20 11.3401 -20 50L 20 50C 20 33.4315 33.4315 20 50 20L 50 -20ZM 450 20C 466.569 20 480 33.4315 480 50L 520 50C 520 11.3401 488.66 -20 450 -20L 450 20ZM 480 670C 480 686.569 466.569 700 450 700L 450 740C 488.66 740 520 708.66 520 670L 480 670ZM 50 700C 33.4315 700 20 686.569 20 670L -20 670C -20 708.66 11.3401 740 50 740L 50 700Z"/>
<path id="path3_fill" d="M 0 50C 0 22.3858 22.3858 0 50 0L 340 0C 367.614 0 390 22.3858 390 50L 390 450C 390 477.614 367.614 500 340 500L 50 500C 22.3858 500 0 477.614 0 450L 0 50Z"/>
<path id="path4_stroke_2x" d="M 50 15L 340 15L 340 -15L 50 -15L 50 15ZM 375 50L 375 450L 405 450L 405 50L 375 50ZM 340 485L 50 485L 50 515L 340 515L 340 485ZM 15 450L 15 50L -15 50L -15 450L 15 450ZM 50 -15C 14.1015 -15 -15 14.1015 -15 50L 15 50C 15 30.67 30.67 15 50 15L 50 -15ZM 340 15C 359.33 15 375 30.67 375 50L 405 50C 405 14.1015 375.899 -15 340 -15L 340 15ZM 375 450C 375 469.33 359.33 485 340 485L 340 515C 375.899 515 405 485.899 405 450L 375 450ZM 50 485C 30.67 485 15 469.33 15 450L -15 450C -15 485.899 14.1015 515 50 515L 50 485Z"/>
<path id="path5_fill" d="M 75 37.5C 75 58.2107 58.2107 75 37.5 75C 16.7893 75 0 58.2107 0 37.5C 0 16.7893 16.7893 0 37.5 0C 58.2107 0 75 16.7893 75 37.5Z"/>
<path id="path6_fill" d="M 125 62.5C 125 97.0178 97.0178 125 62.5 125C 27.9822 125 0 97.0178 0 62.5C 0 27.9822 27.9822 0 62.5 0C 97.0178 0 125 27.9822 125 62.5Z"/>
<path id="path7_fill" d="M 50 25C 50 38.8071 38.8071 50 25 50C 11.1929 50 0 38.8071 0 25C 0 11.1929 11.1929 0 25 0C 38.8071 0 50 11.1929 50 25Z"/>
<path id="path8_fill" d="M 250 125C 250 194.036 194.036 250 125 250C 55.9644 250 0 194.036 0 125C 0 55.9644 55.9644 0 125 0C 194.036 0 250 55.9644 250 125Z"/>
<path id="path9_fill" d="M 90 45C 90 69.8528 69.8528 90 45 90C 20.1472 90 0 69.8528 0 45C 0 20.1472 20.1472 0 45 0C 69.8528 0 90 20.1472 90 45Z"/>
<path id="path10_fill" d="M 40 20C 40 31.0457 31.0457 40 20 40C 8.95431 40 0 31.0457 0 20C 0 8.95431 8.95431 0 20 0C 31.0457 0 40 8.95431 40 20Z"/>
<path id="path11_fill" d="M 110 55C 110 85.3757 85.3757 110 55 110C 24.6243 110 0 85.3757 0 55C 0 24.6243 24.6243 0 55 0C 85.3757 0 110 24.6243 110 55Z"/>
<path id="path12_fill" d="M 30 15C 30 23.2843 23.2843 30 15 30C 6.71573 30 0 23.2843 0 15C 0 6.71573 6.71573 0 15 0C 23.2843 0 30 6.71573 30 15Z"/>
<path id="path13_fill" d="M 200 100C 200 155.228 155.228 200 100 200C 44.7715 200 0 155.228 0 100C 0 44.7715 44.7715 0 100 0C 155.228 0 200 44.7715 200 100Z"/>
<path id="path14_fill" d="M 150 75C 150 116.421 116.421 150 75 150C 33.5786 150 0 116.421 0 75C 0 33.5786 33.5786 0 75 0C 116.421 0 150 33.5786 150 75Z"/>
<path id="path15_fill" d="M 150 75C 150 116.421 116.421 150 75 150C 33.5786 150 0 116.421 0 75C 0 33.5786 33.5786 0 75 0C 116.421 0 150 33.5786 150 75Z"/>
<path id="path16_stroke" d="M 0 52L 0.85509 47.0737L -5.62768 45.9484L -4.97537 52.4957L 0 52ZM 27 323L 22.0246 323.496L 22.734 330.615L 29.1758 327.502L 27 323ZM 439 323L 437.244 327.682L 439.282 328.446L 441.231 327.475L 439 323ZM 579 20L 583.963 19.3963L 583.098 12.2786L 576.718 15.5512L 579 20ZM 597 168L 592.037 168.604L 592.594 173.189L 597.209 172.996L 597 168ZM 764 161L 766.231 165.475L 767.026 165.079L 767.636 164.432L 764 161ZM 916 0L 920.695 1.72055L 912.364 -3.43245L 916 0ZM -4.97537 52.4957L 22.0246 323.496L 31.9754 322.504L 4.97537 51.5043L -4.97537 52.4957ZM 29.1758 327.502L 209.176 240.502L 204.824 231.498L 24.8242 318.498L 29.1758 327.502ZM 205.244 240.682L 437.244 327.682L 440.756 318.318L 208.756 231.318L 205.244 240.682ZM 443.839 321.743L 390.839 117.743L 381.161 120.257L 434.161 324.257L 443.839 321.743ZM 388.282 123.449L 581.282 24.4488L 576.718 15.5512L 383.718 114.551L 388.282 123.449ZM 574.037 20.6037L 592.037 168.604L 601.963 167.396L 583.963 19.3963L 574.037 20.6037ZM 597.209 172.996L 764.209 165.996L 763.791 156.004L 596.791 163.004L 597.209 172.996ZM 767.636 164.432L 919.636 3.43245L 912.364 -3.43245L 760.364 157.568L 767.636 164.432ZM 911.305 -1.72055L 771.305 380.279L 780.695 383.721L 920.695 1.72055L 911.305 -1.72055ZM -3.32182 55.737L 203.678 239.737L 210.322 232.263L 3.32182 48.263L -3.32182 55.737ZM 209.736 240.185L 388.736 123.185L 383.264 114.815L 204.264 231.815L 209.736 240.185ZM -0.85509 56.9263L 385.145 123.926L 386.855 114.074L 0.85509 47.0737L -0.85509 56.9263ZM 441.231 327.475L 766.231 165.475L 761.769 156.525L 436.769 318.525L 441.231 327.475Z"/>
<path id="path17_stroke" d="M 0 359L -4.98377 358.597L -5.25699 361.98L -2.21464 363.483L 0 359ZM 209.5 195.5L 214.5 195.5L 214.5 185.255L 206.424 191.558L 209.5 195.5ZM 209.5 462.5L 207.285 466.983L 208.8 467.731L 210.458 467.407L 209.5 462.5ZM 455.5 414.5L 457.059 409.749L 455.821 409.343L 454.542 409.593L 455.5 414.5ZM 486.5 643L 481.545 643.672L 482.506 650.753L 488.829 647.424L 486.5 643ZM 742 508.5L 744.329 512.924L 754.771 507.428L 743.559 503.749L 742 508.5ZM 24.0162 -0.402588L -4.98377 358.597L 4.98377 359.403L 33.9838 0.402588L 24.0162 -0.402588ZM 3.07621 362.942L 212.576 199.442L 206.424 191.558L -3.07621 355.058L 3.07621 362.942ZM 204.5 195.5L 204.5 462.5L 214.5 462.5L 214.5 195.5L 204.5 195.5ZM 211.715 458.017L 2.21464 354.517L -2.21464 363.483L 207.285 466.983L 211.715 458.017ZM 210.458 467.407L 456.458 419.407L 454.542 409.593L 208.542 457.593L 210.458 467.407ZM 450.545 415.172L 481.545 643.672L 491.455 642.328L 460.455 413.828L 450.545 415.172ZM 488.829 647.424L 744.329 512.924L 739.671 504.076L 484.171 638.576L 488.829 647.424ZM 743.559 503.749L 457.059 409.749L 453.941 419.251L 740.441 513.251L 743.559 503.749Z"/>
<path id="path18_stroke" d="M 0 212L -4.01812 209.024L -6.35924 212.186L -3.83776 215.205L 0 212ZM 157 400L 153.162 403.205L 156.504 407.206L 160.362 403.701L 157 400ZM 348.5 226L 348.186 221.01L 346.436 221.12L 345.138 222.299L 348.5 226ZM 571 212L 575.462 209.744L 573.975 206.803L 570.686 207.01L 571 212ZM -3.83776 215.205L 153.162 403.205L 160.838 396.795L 3.83776 208.795L -3.83776 215.205ZM 160.362 403.701L 351.862 229.701L 345.138 222.299L 153.638 396.299L 160.362 403.701ZM 348.814 230.99L 571.314 216.99L 570.686 207.01L 348.186 221.01L 348.814 230.99ZM 566.538 214.256L 727.038 531.756L 735.962 527.244L 575.462 209.744L 566.538 214.256ZM 4.01812 214.976L 161.018 2.97568L 152.982 -2.97568L -4.01812 209.024L 4.01812 214.976Z"/>
<path id="path19_stroke" d="M 0 13L 2.5188 8.68078L -9.72649 1.53979L -4.67124 14.7831L 0 13ZM 106.5 292L 101.829 293.783L 104.58 300.991L 110.036 295.536L 106.5 292ZM 436.5 292L 433.606 296.077L 435.582 297.48L 437.907 296.798L 436.5 292ZM 601.5 155L 601.5 150L 599.695 150L 598.306 151.153L 601.5 155ZM 903.5 155L 904.907 159.798L 912.922 157.447L 907.064 151.493L 903.5 155ZM 751 0L 754.564 -3.50667L 752.438 -5.66731L 749.54 -4.78194L 751 0ZM -4.67124 14.7831L 101.829 293.783L 111.171 290.217L 4.67124 11.2169L -4.67124 14.7831ZM 110.036 295.536L 247.036 158.536L 239.964 151.464L 102.964 288.464L 110.036 295.536ZM 240.606 159.077L 433.606 296.077L 439.394 287.923L 246.394 150.923L 240.606 159.077ZM 439.694 295.847L 604.694 158.847L 598.306 151.153L 433.306 288.153L 439.694 295.847ZM 601.5 160L 903.5 160L 903.5 150L 601.5 150L 601.5 160ZM 907.064 151.493L 754.564 -3.50667L 747.436 3.50667L 899.936 158.507L 907.064 151.493ZM 749.54 -4.78194L 242.04 150.218L 244.96 159.782L 752.46 4.78194L 749.54 -4.78194ZM -2.5188 17.3192L 240.981 159.319L 246.019 150.681L 2.5188 8.68078L -2.5188 17.3192ZM 902.093 150.202L 435.093 287.202L 437.907 296.798L 904.907 159.798L 902.093 150.202Z"/>
<path id="path20_fill" d="M 50 0L 93.3013 440.921L 6.69873 440.921L 50 0Z"/>
<path id="path21_fill" d="M 64.0637 0L 119.545 547.819L 8.58291 547.819L 64.0637 0Z"/>
<path id="path22_fill" d="M 44.4091 0L 82.8686 566.269L 5.9497 566.269L 44.4091 0Z"/>
<path id="path23_fill" d="M 171.429 99.5714C 171.429 72.4509 158.929 47.4509 137.165 31.1562C 130.915 26.3571 121.875 27.5848 117.188 33.9464C 112.388 40.1964 113.728 49.2366 119.978 53.9241C 134.487 64.8616 142.857 81.4911 142.857 99.5714C 142.857 131.045 117.188 156.714 85.7143 156.714C 54.2411 156.714 28.5714 131.045 28.5714 99.5714C 28.5714 81.4911 36.942 64.8616 51.4509 53.9241C 57.7009 49.2366 59.0402 40.1964 54.2411 33.9464C 49.5536 27.5848 40.625 26.3571 34.2634 31.1562C 12.5 47.4509 0 72.4509 0 99.5714C 0 146.781 38.5045 185.286 85.7143 185.286C 132.924 185.286 171.429 146.781 171.429 99.5714ZM 100 13.8571C 100 6.04464 93.5268 -0.428571 85.7143 -0.428571C 77.9018 -0.428571 71.4286 6.04464 71.4286 13.8571L 71.4286 85.2857C 71.4286 93.0982 77.9018 99.5714 85.7143 99.5714C 93.5268 99.5714 100 93.0982 100 85.2857L 100 13.8571Z"/>
</defs>
</svg>
