<?xml version="1.0" encoding="utf-8"?>
<!-- Generator: Adobe Illustrator 18.0.0, SVG Export Plug-In . SVG Version: 6.00 Build 0)  -->
<!DOCTYPE svg PUBLIC "-//W3C//DTD SVG 1.1//EN" "http://www.w3.org/Graphics/SVG/1.1/DTD/svg11.dtd">
<svg version="1.1" id="Capa_1" xmlns="http://www.w3.org/2000/svg" xmlns:xlink="http://www.w3.org/1999/xlink" x="0px" y="0px"
	 width="428.6px" height="428.6px" viewBox="0 0 428.6 428.6" enable-background="new 0 0 428.6 428.6" xml:space="preserve">
<g>
	<path fill="#FFFFFF" d="M427.2,302.8c-1.7,34.3-9.5,64.7-34.6,89.8c-25.1,25.1-55.5,32.9-89.8,34.6c-29.6,1.7-58.9,1.4-88.4,1.4
		s-58.9,0.3-88.5-1.4c-34.3-1.7-64.7-9.5-89.8-34.6c-25.1-25.1-32.9-55.5-34.6-89.8C-0.3,273.2,0,243.9,0,214.3
		c0-29.6-0.3-58.9,1.4-88.5C3.1,91.5,10.9,61.1,36,36C61.1,10.9,91.5,3.1,125.9,1.4C155.4-0.3,184.7,0,214.3,0s58.9-0.3,88.5,1.4
		c34.3,1.7,64.7,9.5,89.8,34.6c25.1,25.1,32.9,55.5,34.6,89.8c1.7,29.6,1.4,58.9,1.4,88.4C428.6,243.9,428.9,273.2,427.2,302.8z
		 M87.9,47.2c-9.8,3.9-17,8.6-24.6,16.2c-7.5,7.5-12.3,14.8-16.2,24.6c-11.2,28.2-8.6,95.1-8.6,126.4c0,31.3-2.5,98.2,8.6,126.4
		c3.9,9.8,8.7,17,16.2,24.6c7.5,7.5,14.8,12.3,24.6,16.2c28.2,11.2,95.1,8.6,126.4,8.6s98.2,2.5,126.4-8.6c9.8-3.9,17-8.7,24.6-16.2
		c7.5-7.5,12.3-14.8,16.2-24.6c11.2-28.2,8.6-95.1,8.6-126.4c0-31.3,2.5-98.2-8.6-126.4c-3.9-9.8-8.7-17-16.2-24.6
		c-7.5-7.5-14.8-12.3-24.6-16.2c-28.2-11.2-95.1-8.6-126.4-8.6S116.1,36,87.9,47.2z M214.3,324.2c-60.8,0-109.9-49.1-109.9-109.9
		c0-60.8,49.1-109.9,109.9-109.9s109.9,49.1,109.9,109.9C324.2,275.1,275.1,324.2,214.3,324.2z M214.3,142.9
		c-39.3,0-71.4,32.1-71.4,71.4c0,39.3,32.1,71.4,71.4,71.4s71.4-32.1,71.4-71.4C285.7,175,253.6,142.9,214.3,142.9z M328.7,125.6
		c-14.2,0-25.7-11.4-25.7-25.7c0-14.2,11.4-25.7,25.7-25.7c14.2,0,25.7,11.4,25.7,25.7C354.4,114.1,342.9,125.6,328.7,125.6z"/>
</g>
</svg>
