<?xml version="1.0" encoding="utf-8"?>
<!-- Generator: Adobe Illustrator 18.0.0, SVG Export Plug-In . SVG Version: 6.00 Build 0)  -->
<!DOCTYPE svg PUBLIC "-//W3C//DTD SVG 1.1//EN" "http://www.w3.org/Graphics/SVG/1.1/DTD/svg11.dtd">
<svg version="1.1" id="Capa_1" xmlns="http://www.w3.org/2000/svg" xmlns:xlink="http://www.w3.org/1999/xlink" x="0px" y="0px"
	 width="3006.2px" height="750px" viewBox="0 0 3006.2 750" enable-background="new 0 0 3006.2 750" xml:space="preserve">
<path fill="#F28B4B" d="M189.2,724.9c-3.3,0.8-5.7-1.6-8.1-2.9C92.7,667.8,31.6,593.3,8,491.1c-9-39.1-9.8-78.6-5.3-118.5
	c2.9-26.5,8.1-52.1,18.3-76.6c13.4-32.2,33-59.5,63.5-77c35.8-20.4,73.7-24.4,112.8-10.2c0.8,0.4,1.6,0.8,2.4,1.2
	c0.4,0.4,0.8,0.8,2,1.6c-2.9,1.6-5.7,2-9,2.9c-13.4,2.4-26.5,6.1-39.1,11.8c-5.7,2.4-11,5.7-16.3,9c-21.6,15.5-27.7,36.2-17.1,60.7
	c13.8,32.2,37.9,50.9,73.3,55.8c30.1,4.1,59-1.6,87.1-11.8c35.4-13,66.8-31.8,91.2-61.5c12.6-15.1,21.2-31.8,22.4-52.1
	c0.4-9-0.8-17.5-2.9-26.1c3.7-0.4,4.9,2.4,6.5,4.1c13.8,16.3,24,33.8,25.7,55.8c1.2,15.9-2.9,30.1-11,43.6
	c-6.5,10.2-14.7,19.1-22.8,28.1c-22.8,24-46.4,47.6-69.2,71.7c-35,36.6-68.4,75.3-96.1,117.7c-20,30.5-37.1,62.7-46,98.5
	c-8.6,34.6-6.9,68.4,9.4,100.6C188.8,722.4,188.8,723.6,189.2,724.9L189.2,724.9z"/>
<path fill="#89C054" d="M975.5,466.7c1.6,1.2,2.4,2,3.3,2.4c38.7,20,61.5,52.1,71.3,94.1c10.2,44,4.1,85.5-20.4,123.8
	c-24.4,37.9-60.7,57.4-105.5,59.5c-26.1,1.2-52.1,0.4-78.2,0.4c-46.4,0-93.3,0-139.7,0c-2.4,0-5.3,0-7.7,0c-7.7-0.8-12.2-5.7-13-13
	c-0.4-2.4,0-5.3,0-7.7c0-156.4,0-312.7,0-469.1c0-2.4,0-5.3,0-7.7c0.8-7.3,5.3-11.8,12.6-12.6c1.6-0.4,3.3-0.4,4.9-0.4
	c65.6,0,130.7-0.4,196.3,0.4c66.8,0,111.2,48.9,118.5,109.5c3.7,31.4-1.2,61.1-16.7,88.8C994.6,446.7,986.1,456.5,975.5,466.7z
	 M725.1,601.9c0,31.4,0,62.3,0,93.7c0,2,0,4.1,0,5.7c-0.4,4.9,1.6,6.5,6.1,6.1c2.4-0.4,4.5,0,6.9,0c57.8,0,115.2,0,173.1,0
	c3.7,0,7.3,0,10.6,0c33.8-2,60.7-16.7,77.8-46.4c15.1-26.1,19.1-54.2,13.4-83.9c-2-11.4-5.7-22.8-11.4-33
	c-17.9-32.6-46-49.3-82.7-49.7c-61.9-0.8-123.8-0.4-185.7-0.4c-8.1,0-8.1,0-8.1,9C725.1,535.9,725.1,568.9,725.1,601.9z
	 M816.3,275.3c-28.1,0-55.8,0-83.9,0c-6.9,0-7.3,0-7.3,6.9c0,55,0,109.9,0,164.9c0,7.3,0,7.3,7.7,7.3c54.2,0,108.7,0.4,162.9,0
	c35.8-0.4,62.3-16.7,76.6-50.5c11-26.1,10.6-52.5,0-79c-8.6-20.8-23.2-35.8-44.4-44c-10.6-4.1-22-6.1-33.4-6.1
	C868.4,275.3,842.3,275.3,816.3,275.3z"/>
<path fill="#89C054" d="M435.1,200.8c15.1-9.4,29.7-15.5,44.8-20.4c19.5-6.1,39.9-9.8,60.7-7.7c34.6,3.7,59.9,21.6,77.8,50.9
	c15.5,25.7,23.2,53.3,26.1,83.1c6.9,74.1-4.5,146.2-24,217c-13.4,48.5-31.8,94.9-59,137.6c-13.8,21.6-29.3,41.5-49.3,57.4
	c-22,17.5-46.4,28.5-75.3,27.3c-15.5-0.8-30.1-4.9-44-11.8c-10.6-5.3-20.4-11.4-29.7-18.3c0.8-2,2.4-1.2,3.3-0.8
	c24,4.9,46-1.2,66.4-13c20.8-11.4,37.5-28.1,52.1-46.4c21.6-27.3,37.9-57.8,51.3-89.6c18.7-44.4,33.4-89.6,41.1-137.2
	c6.5-40.7,7.3-81-5.3-120.9c-15.5-48.9-46.8-83.5-96.1-100.2c-9-2.9-18.3-5.3-27.7-5.7C444.5,202,440.8,201.6,435.1,200.8z"/>
<path fill="#8BC055" d="M1512.2,668.7c2-4.5,1.2-8.6,1.2-12.2c0-83.9,0-167.4,0-251.3c0-3.7,0-7.3,0.4-10.6
	c1.2-7.3,5.7-11.4,13-12.2c2.9-0.4,5.7-0.4,9,0c8.1,0.4,13,5.7,13.4,13.8c0,2,0,4.1,0,5.7c0,108.3,0,216.2,0,324.6
	c0,2.4,0,5.3,0,7.7c-0.8,5.3-3.7,9.8-8.6,11c-10.6,2.4-20.4,2.4-27.7-8.1c-22-33-45.2-65.6-67.6-98.1c-39.5-57-79-114-118.5-171
	c-1.6-2-3.3-4.1-4.9-6.9c-2.4,3.7-1.2,7.3-1.2,10.6c0,83.9,0,168.2,0,252.1c0,3.3,0,6.5,0,9.8c-0.8,7.3-6.1,12.2-13.4,13
	c-3.3,0.4-6.5,0.4-9.8,0c-6.9-0.4-12.2-5.3-13-12.2c-0.4-2.4,0-5.3,0-7.7c0-107.9,0-215.4,0-323.3c0-2.4,0-4.5,0-6.9
	c0.8-8.6,6.1-13.4,14.7-13.8c9.8-0.4,16.3,3.3,22,11.4c61.1,88.8,122.6,177.5,183.7,265.9C1506.5,662.5,1508.6,666.2,1512.2,668.7z"
	/>
<path fill="#8BC055" d="M2649.6,607.6c2.4,4.5,5.3,6.5,7.7,9c36.6,33,72.9,66,109.5,99c2.9,2.4,5.3,4.9,7.7,7.3
	c4.1,4.5,5.3,9.8,2.9,15.5c-2.4,5.7-6.5,8.1-13,9c-11,0.8-19.5-1.6-28.1-9.4c-47.6-44-95.7-87.1-144.2-130.3
	c-8.1-7.3-8.6-15.5-6.9-24.8c1.2-5.7,5.3-9,10.6-10.2c3.3-0.8,6.5-0.8,9.8-0.8c19.5,0,39.1,0,58.6,0c7.7,0,15.5-0.4,23.2-2.4
	c26.5-6.9,44-23.2,52.1-49.3c4.9-15.5,4.9-30.9,0.4-46c-8.6-30.1-32.2-50.1-63.1-52.9c-4.9-0.4-9.8-0.4-14.7-0.4
	c-26.5,0-52.9,0-79,0c-15.1,0-13-1.6-13,12.6c0,90.4,0,180.4,0,270.8c0,8.6,0,17.1,0,25.2c0,15.9-13,24-27.7,17.1
	c-4.5-2-7.3-5.3-8.1-10.2c-0.4-3.3-0.4-6.5-0.4-9.8c0-106.7,0-213.8,0-320.5c0-18.7,3.3-22,22-22c37.5,0,74.9-0.4,112.4,0
	c30.9,0.4,58.6,10.2,79.8,33c31.4,33.8,38.7,74.1,24.4,117.3c-13.8,42.4-44.8,65.6-88.4,72.9c-7.7,1.2-15.5,1.6-23.2,1.6
	C2657.7,607.2,2654.5,607.6,2649.6,607.6z"/>
<path fill="#8CC055" d="M2044.5,649.5c-2,1.2-2,3.3-2.4,4.9c-4.1,28.5-18.7,50.1-41.1,67.2c-51.3,38.3-130.3,37.9-181.2-1.2
	c-21.6-16.7-35-38.3-38.3-65.6c-1.2-11.8,2.9-17.5,15.1-19.5c12.6-2,19.5,2,21.2,13.8c3.3,24,16.7,39.9,37.1,50.5
	c39.1,20,78.6,19.1,116.9-2.4c15.9-9,27.7-22,32.2-39.9c3.3-13,2.9-25.7-2-38.3c-4.1-11.4-12.2-18.7-23.2-24
	c-15.5-6.9-31.8-9.4-48.1-11.4c-21.2-2.4-42.4-3.7-63.1-7.7c-8.1-1.6-16.7-3.7-24.4-6.5c-36.6-12.6-55.8-39.1-58.6-77.4
	c-3.3-41.5,13.8-73.3,49.7-93.7c45.6-26.1,93.7-27.7,141.7-6.1c29.3,13,48.5,35.8,55.8,67.6c0.4,2.4,0.8,5.3,1.2,7.7
	c0,1.2,0,2.4,0,4.1c-1.2,8.1-7.7,13-19.5,13.8c-7.3,0.4-14.3-3.7-15.5-10.6c-6.1-36.6-31.8-52.1-64.7-58.2
	c-23.6-4.5-46.8-2-68.8,7.3c-19.1,8.1-34.6,20.8-40.7,41.9c-4.5,14.7-3.3,28.9,2,43.2c4.1,10.2,11.4,17.5,20.8,22.4
	c13.4,6.9,28.1,9.8,43.2,11.8c22,2.9,44,4.1,66,7.7c11.8,2,23.6,4.9,34.6,9.4c33.4,13,49.3,38.7,52.5,73.3
	C2042.8,638.9,2040.8,644.6,2044.5,649.5L2044.5,649.5z"/>
<path fill="#8BC055" d="M2044.5,649.5L2044.5,649.5c0.4-0.8,0.4-2,0.8-3.3c0.4-0.4,0.8-1.2,0.8-1.6c4.5-7.3,13.4-11,22.4-9.4
	c7.3,1.2,11.4,6.1,12.6,15.5c2,19.1,12.2,33.4,27.7,44c36.6,25.7,94.5,25.7,131.1,0c24-16.7,33.4-40.3,27.7-68
	c-2.9-13.8-11-24-23.6-30.5c-15.9-7.7-33-10.2-50.1-12.2c-24-2.9-48.1-4.1-71.7-9.4c-9-2-17.5-4.9-26.1-8.6
	c-28.9-13.4-44-36.2-48.1-67.6c-7.3-56.2,25.2-90,61.1-105.9c41.5-18.3,83.9-19.1,126.2-1.6c28.9,12.2,48.9,33,57.8,63.5
	c1.2,4.1,2,8.1,2.9,12.2c1.2,8.6-3.3,14.7-11.4,17.1c-1.6,0.4-3.3,0.4-4.9,0.8c-11.8,2-17.9-1.6-20-13.8
	c-2.4-13.8-8.6-25.2-18.7-34.2c-5.3-4.5-10.6-8.6-17.1-11.4c-35.4-15.5-70.9-14.7-105.5,3.3c-17.9,9.4-30.1,23.6-33.8,44
	c-2.4,13-0.8,25.2,4.1,37.5c4.1,9.8,11.4,16.7,20.4,21.2c13.4,6.9,28.1,9.8,43.2,11.8c22,2.9,44,4.1,66,7.7c13,2.4,26.1,5.7,38.3,11
	c26.9,11.8,42.4,32.6,47.6,61.1c6.9,38.7-5.3,70.9-35.8,95.3c-54.2,43.2-139.3,42.8-191.4-3.3C2056.7,698,2045.7,676,2044.5,649.5z"
	/>
<path fill="#8CC055" d="M1565.6,564.8c0-53.3,0-106.7,0-160.4c0-2.9,0-5.7,0.4-9c1.2-7.3,6.1-12.2,13.8-12.6c1.6,0,3.3,0,4.9,0
	c58.6,0,117.3,0,175.9,0c4.5,0,9.4,0,13,2.9c7.3,5.7,6.9,13.4,5.7,21.6c-1.2,6.9-6.1,11-13.8,11.8c-2.9,0.4-5.7,0.4-9,0.4
	c-47.2,0-94.5,0-141.7,0c-2.4,0-5.3,0-7.7,0c-3.7,0-5.3,1.6-5.3,5.3c0,7.3,0,15.1,0,22.4c0,29.7,0,59.5,0,88.8
	c0,10.2,0,10.2,10.2,10.2c45.6,0,91.2,0,136.8,0c2.4,0,4.5,0,6.9,0c17.9-0.8,21.6,9.8,19.5,24.8c-0.8,6.5-5.7,11-12.6,11.8
	c-2.9,0.4-5.7,0-9,0c-46,0-92,0-137.6,0c-2,0-4.1,0-5.7,0c-8.1,0-8.1,0-8.1,8.1c0,21.2,0,42.4,0,63.5c0,15.9,0,31.8,0,48.1
	c0,8.6,0,8.6,9,8.6c48.9,0,97.7,0,146.6,0c2.4,0,5.3,0,7.7,0c2,0,4.1,0,5.7,0.8c7.7,2.9,10.6,10.6,9,22.4
	c-1.2,7.3-6.1,11.8-13.8,12.2c-1.6,0-3.3,0-4.9,0c-59,0-118.1,0-176.7,0c-3.7,0-7.3,0.4-10.6-1.2c-6.1-3.3-8.6-8.6-8.6-15.5
	c0-11,0-22,0-33.4C1565.6,652.8,1565.6,608.8,1565.6,564.8z"/>
<path fill="#8CC055" d="M2790.9,564.4c0-53.3,0-106.7,0-160.4c0-2.9,0-6.1,0.4-9c1.2-6.9,6.1-11.4,13.4-12.2c2-0.4,4.1,0,5.7,0
	c58.2,0,116.5,0,174.7,0c2,0,4.1,0,5.7,0c3.7,0,6.9,1.6,9.4,4.5c6.1,6.5,5.7,14.3,3.3,22c-2,6.9-7.7,9.4-14.3,9.8
	c-2.4,0-5.3,0-7.7,0c-46.8,0-93.7,0-140.9,0c-2,0-4.1,0-5.7,0c-7.3,0-7.3,0.4-7.3,7.7c0,36.6,0,72.9,0,109.5c0,9.8,0,9.8,9.4,9.8
	c46.4,0,92.4,0,138.9,0c2.9,0,5.7,0,9,0c6.9,0,13,2.4,15.1,9.8c2.4,8.1,2.9,16.3-3.7,22.8c-3.3,3.7-8.1,4.1-12.6,4.1
	c-21.2,0-42.4,0-63.5,0c-26.9,0-54.2,0-81,0c-2.4,0-4.5,0-6.9,0c-3.3,0-4.5,1.6-4.5,4.9c0,2,0,4.1,0,5.7c0,35.8,0,71.7,0,107.5
	c0,1.6,0,3.3,0,4.9c-0.4,4.1,1.6,5.3,5.3,4.9c2.4,0,4.5,0,6.9,0c48.1,0,96.5,0,144.6,0c2.9,0,5.7,0,9,0c0.8,0,2,0.4,2.9,0.4
	c7.7,2.4,11,10.2,9.8,22c-0.8,7.7-5.7,12.2-13.4,12.6c-2,0-4.1,0-5.7,0c-58.6,0-117.3,0-175.9,0c-2.9,0-6.1,0-8.6-0.4
	c-5.7-1.2-9.8-6.5-10.6-12.6c-0.4-2.9,0-5.7,0-9C2790.9,671.1,2790.9,617.8,2790.9,564.4z"/>
<path fill="#8CC055" d="M1063.1,564.4c0-53.3,0-106.7,0-160.4c0-2.4,0-5.3,0-7.7c0.8-7.3,6.1-12.6,13.4-13.4c2-0.4,4.1,0,5.7,0
	c58.2,0,116.5,0,175.1,0c2.4,0,4.5,0,6.9,0c5.7,0.8,9.8,3.7,11.8,9c2,5.7,2,11.4,0,17.1c-1.6,4.9-5.3,8.1-10.6,9
	c-3.7,0.4-6.9,0.8-10.6,0.8c-47.2,0-94.5,0-141.7,0c-2.4,0-5.3,0-7.7,0c-3.7,0-5.3,1.2-5.3,5.3c0,3.7,0,7.3,0,10.6
	c0,33.4,0,67.2,0,100.6c0,11.4-0.4,10.6,11,10.6c44.8,0,90,0,134.8,0c2.9,0,5.7,0,9,0c15.9,0.4,24,12.6,17.9,27.3
	c-2,4.9-5.7,8.1-11,8.6c-3.7,0.4-7.3,0.4-10.6,0.4c-46.4,0-93.3,0-139.7,0c-11.4,0-11-0.8-11,10.6c0,35.8,0,71.7,0,107.5
	c0,2,0,4.1,0,5.7c0,2.9,1.2,4.1,4.1,4.1c2.4,0,5.3,0,7.7,0c48.1,0,95.7,0,143.7,0c2.4,0,5.3,0,7.7,0c1.6,0,3.3,0,4.9,0.8
	c7.7,2.4,11.4,10.2,9.8,22c-0.8,7.7-5.7,12.2-13.4,13c-2.4,0-4.5,0-6.9,0c-57.8,0-116.1,0-173.9,0c-2.4,0-4.5,0-6.9,0
	c-7.7-0.8-12.6-5.3-13.4-13c-0.4-2.4,0-5.3,0-7.7C1063.1,671.9,1063.1,618.2,1063.1,564.4z"/>
<path fill="#89C054" d="M2313.2,564.4c0-52.9,0-106.3,0-159.2c0-2.9,0-5.7,0-9c0.8-8.1,5.7-12.6,14.3-13.4c1.6,0,3.3,0,4.9,0
	c58.2,0,116.5,0,175.1,0c2,0,4.1,0,5.7,0c3.3,0,6.5,1.2,9,3.7c6.9,6.1,5.7,14.3,4.1,22c-1.2,6.9-6.9,9.8-13.8,10.6
	c-2.9,0.4-5.7,0-9,0c-46.4,0-93.3,0-139.7,0c-2,0-4.1,0-5.7,0c-8.6,0-8.6,0-8.6,8.6c0,36.6,0,72.9,0,109.5c0,9,0,9,9.4,9
	c46,0,92,0,137.6,0c2.4,0,4.5,0,6.9,0c16.3,0,23.6,9.8,19.1,25.7c-1.6,5.7-5.7,9.8-11.8,10.6c-3.3,0.4-6.5,0.4-9.8,0.4
	c-46.4,0-92.4,0-138.9,0c-2.4,0-5.3,0-7.7,0c-3.7,0-5.3,2-5.3,5.3c0,2.4,0,4.5,0,6.9c0,34.6,0,69.2,0,103.4c0,1.6,0,3.3,0,4.9
	c0.4,6.9,0.4,7.3,6.9,7.3c7.3,0,15.1,0,22.4,0c42.8,0,85.5,0,127.9,0c2.4,0,5.3,0,7.7,0c3.3,0,6.1,1.6,8.6,4.1
	c4.5,4.1,6.1,16.3,3.3,23.2c-2.9,6.5-8.1,8.6-15.1,8.6c-36.6,0-73.7,0-110.4,0c-23.2,0-46.4-0.4-69.2,0
	c-13.4,0.4-18.7-6.5-18.7-19.1C2313.2,673.5,2313.2,619,2313.2,564.4z"/>
<path fill="#8BC055" d="M374.9,112c-3.7,1.6-4.5,4.9-5.7,7.7c-9.8,19.5-22.4,37.5-39.9,51.3c-1.6,1.2-3.3,2.4-4.9,3.3
	c-4.5,2.9-5.3,2.4-6.5-2.4c-4.9-19.5-4.5-38.7,1.2-57.8c6.9-24.8,21.6-45.2,40.7-62.3c27.3-24.4,59.9-39.9,94.5-51.7
	c0.4,0,1.2,0.4,2,0.4c0.4,2.9-1.6,5.3-2.4,7.7c-17.9,41.1-31.8,83.5-39.9,127.5c-5.7,29.7-26.9,51.7-61.9,55c-1.6,0-3.3,0.4-5.3-1.2
	C357.3,164.5,370.8,139.7,374.9,112z"/>
<path fill="#8CC056" d="M331.7,714.7c-20.8,13.8-42.8,23.2-68.4,21.6c-17.5-1.2-31.4-9.8-41.5-24.4c-13.8-19.5-19.1-41.9-17.5-65.6
	c2-31.8,14.3-59.9,30.1-86.7c22.8-37.9,51.7-70,84.7-99.4c-1.2,2.4-2.4,4.5-3.7,6.9c-24.8,41.9-47.6,85.1-62.7,131.9
	c-6.9,20.8-11.8,41.9-11,64.3c0.4,6.1,0.8,11.8,2.4,17.5c5.7,20,19.5,30.9,39.1,35c11.4,2.4,23.2,2.9,35,0.8
	C322.7,715.5,327.2,715.1,331.7,714.7z"/>
<path fill="#F28B4B" d="M224.6,232.1c22-1.6,48.9,16.3,49.3,48.5c0.8,27.3-21.6,49.7-48.9,49.7c-27.7,0-49.3-21.6-49.3-49.3
	C174.9,253.7,198.9,230.5,224.6,232.1z"/>
<path fill="#8CC056" d="M314.2,213.4c-18.3-4.1-34.2-13.4-48.1-25.7c-26.1-22.4-41.9-50.9-52.5-83.1c-2-6.1-1.2-6.5,4.9-7.3
	c7.7-0.8,15.5-1.6,23.2-2.4c8.1-0.8,8.1-0.8,10.2,7.3c4.1,17.1,9,33.8,15.5,50.1c6.1,14.3,13,28.1,23.2,40.3
	C297.5,201.2,305.2,208.1,314.2,213.4z"/>
<path fill="#F28B4B" d="M189.2,724.9c0.4,0,0.4,0,0.8,0.4v0.4C189.2,725.7,189.2,725.7,189.2,724.9L189.2,724.9z"/>
<path fill="#8CC055" d="M2046.1,644.6c-0.4,0.4-0.8,1.2-0.8,1.6C2044.9,645.4,2045.3,645,2046.1,644.6z"/>
</svg>
