<svg width="131" height="35" viewBox="0 0 131 35" version="1.1" xmlns="http://www.w3.org/2000/svg" xmlns:xlink="http://www.w3.org/1999/xlink">
<title>Frame</title>
<desc>Created using Figma</desc>
<g id="Canvas" transform="translate(107 243)">
 clip-path="url(#clip-0)"<g id="Frame">
<path d="M -107 -243L 24 -243L 24 -208L -107 -208L -107 -243Z" fill="#FFFFFF"/>
<g id="Diego Hurtado">
<use xlink:href="#path0_fill" transform="translate(-107 -237)" fill="#828282"/>
</g>
</g>
</g>
<defs>
<path id="path0_fill" d="M 1.65039 19L 1.65039 4.78125L 5.66406 4.78125C 6.90104 4.78125 7.99479 5.05469 8.94531 5.60156C 9.89583 6.14844 10.6283 6.92643 11.1426 7.93555C 11.6634 8.94466 11.9271 10.1035 11.9336 11.4121L 11.9336 12.3203C 11.9336 13.6615 11.6732 14.8366 11.1523 15.8457C 10.638 16.8548 9.89909 17.6296 8.93555 18.1699C 7.97852 18.7103 6.86198 18.987 5.58594 19L 1.65039 19ZM 3.52539 6.32422L 3.52539 17.4668L 5.49805 17.4668C 6.94336 17.4668 8.06641 17.0176 8.86719 16.1191C 9.67448 15.2207 10.0781 13.9414 10.0781 12.2812L 10.0781 11.4512C 10.0781 9.83659 9.69727 8.58333 8.93555 7.69141C 8.18034 6.79297 7.10612 6.33724 5.71289 6.32422L 3.52539 6.32422ZM 16.4551 19L 14.6484 19L 14.6484 8.43359L 16.4551 8.43359L 16.4551 19ZM 14.502 5.63086C 14.502 5.33789 14.5898 5.09049 14.7656 4.88867C 14.9479 4.68685 15.2148 4.58594 15.5664 4.58594C 15.918 4.58594 16.1849 4.68685 16.3672 4.88867C 16.5495 5.09049 16.6406 5.33789 16.6406 5.63086C 16.6406 5.92383 16.5495 6.16797 16.3672 6.36328C 16.1849 6.55859 15.918 6.65625 15.5664 6.65625C 15.2148 6.65625 14.9479 6.55859 14.7656 6.36328C 14.5898 6.16797 14.502 5.92383 14.502 5.63086ZM 23.7402 19.1953C 22.3079 19.1953 21.1426 18.7266 20.2441 17.7891C 19.3457 16.8451 18.8965 15.5853 18.8965 14.0098L 18.8965 13.6777C 18.8965 12.6296 19.0951 11.6953 19.4922 10.875C 19.8958 10.0482 20.4557 9.40365 21.1719 8.94141C 21.8945 8.47266 22.6758 8.23828 23.5156 8.23828C 24.8893 8.23828 25.957 8.69076 26.7188 9.5957C 27.4805 10.5007 27.8613 11.7962 27.8613 13.4824L 27.8613 14.2344L 20.7031 14.2344C 20.7292 15.276 21.0319 16.1191 21.6113 16.7637C 22.1973 17.4017 22.9395 17.7207 23.8379 17.7207C 24.4759 17.7207 25.0163 17.5905 25.459 17.3301C 25.9017 17.0697 26.2891 16.7246 26.6211 16.2949L 27.7246 17.1543C 26.8392 18.515 25.5111 19.1953 23.7402 19.1953ZM 23.5156 9.72266C 22.7865 9.72266 22.1745 9.98958 21.6797 10.5234C 21.1849 11.0508 20.8789 11.793 20.7617 12.75L 26.0547 12.75L 26.0547 12.6133C 26.0026 11.6953 25.7552 10.9857 25.3125 10.4844C 24.8698 9.97656 24.2708 9.72266 23.5156 9.72266ZM 29.5312 13.6289C 29.5312 11.9818 29.9121 10.6732 30.6738 9.70312C 31.4355 8.72656 32.4447 8.23828 33.7012 8.23828C 34.9902 8.23828 35.9961 8.69401 36.7188 9.60547L 36.8066 8.43359L 38.457 8.43359L 38.457 18.7461C 38.457 20.1133 38.0501 21.1908 37.2363 21.9785C 36.429 22.7663 35.3418 23.1602 33.9746 23.1602C 33.2129 23.1602 32.4674 22.9974 31.7383 22.6719C 31.0091 22.3464 30.4525 21.9004 30.0684 21.334L 31.0059 20.25C 31.7806 21.207 32.7279 21.6855 33.8477 21.6855C 34.7266 21.6855 35.4102 21.4382 35.8984 20.9434C 36.3932 20.4486 36.6406 19.752 36.6406 18.8535L 36.6406 17.9453C 35.918 18.7786 34.9316 19.1953 33.6816 19.1953C 32.4447 19.1953 31.4421 18.6973 30.6738 17.7012C 29.9121 16.7051 29.5312 15.3477 29.5312 13.6289ZM 31.3477 13.834C 31.3477 15.0254 31.5918 15.9629 32.0801 16.6465C 32.5684 17.3236 33.252 17.6621 34.1309 17.6621C 35.2702 17.6621 36.1068 17.1445 36.6406 16.1094L 36.6406 11.2852C 36.0872 10.276 35.2572 9.77148 34.1504 9.77148C 33.2715 9.77148 32.5846 10.1133 32.0898 10.7969C 31.5951 11.4805 31.3477 12.4928 31.3477 13.834ZM 40.7129 13.6191C 40.7129 12.584 40.9147 11.653 41.3184 10.8262C 41.7285 9.99935 42.2949 9.36133 43.0176 8.91211C 43.7467 8.46289 44.5768 8.23828 45.5078 8.23828C 46.9466 8.23828 48.1087 8.73633 48.9941 9.73242C 49.8861 10.7285 50.332 12.0534 50.332 13.707L 50.332 13.834C 50.332 14.8626 50.1335 15.7871 49.7363 16.6074C 49.3457 17.4212 48.7826 18.056 48.0469 18.5117C 47.3177 18.9674 46.4779 19.1953 45.5273 19.1953C 44.0951 19.1953 42.9329 18.6973 42.041 17.7012C 41.1556 16.7051 40.7129 15.3867 40.7129 13.7461L 40.7129 13.6191ZM 42.5293 13.834C 42.5293 15.0059 42.7995 15.9466 43.3398 16.6562C 43.8867 17.3659 44.6159 17.7207 45.5273 17.7207C 46.4453 17.7207 47.1745 17.3626 47.7148 16.6465C 48.2552 15.9238 48.5254 14.9147 48.5254 13.6191C 48.5254 12.4603 48.2487 11.5228 47.6953 10.8066C 47.1484 10.084 46.4193 9.72266 45.5078 9.72266C 44.6159 9.72266 43.8965 10.0775 43.3496 10.7871C 42.8027 11.4967 42.5293 12.5124 42.5293 13.834ZM 68.7695 19L 66.8848 19L 66.8848 12.4277L 59.7168 12.4277L 59.7168 19L 57.8418 19L 57.8418 4.78125L 59.7168 4.78125L 59.7168 10.8945L 66.8848 10.8945L 66.8848 4.78125L 68.7695 4.78125L 68.7695 19ZM 78.3398 17.9551C 77.6367 18.7819 76.6048 19.1953 75.2441 19.1953C 74.1178 19.1953 73.2585 18.8698 72.666 18.2188C 72.0801 17.5612 71.7839 16.5911 71.7773 15.3086L 71.7773 8.43359L 73.584 8.43359L 73.584 15.2598C 73.584 16.8613 74.235 17.6621 75.5371 17.6621C 76.9173 17.6621 77.8353 17.1478 78.291 16.1191L 78.291 8.43359L 80.0977 8.43359L 80.0977 19L 78.3789 19L 78.3398 17.9551ZM 87.959 10.0547C 87.6855 10.0091 87.3893 9.98633 87.0703 9.98633C 85.8854 9.98633 85.0814 10.4909 84.6582 11.5L 84.6582 19L 82.8516 19L 82.8516 8.43359L 84.6094 8.43359L 84.6387 9.6543C 85.2311 8.71029 86.071 8.23828 87.1582 8.23828C 87.5098 8.23828 87.7767 8.28385 87.959 8.375L 87.959 10.0547ZM 92.5684 5.875L 92.5684 8.43359L 94.541 8.43359L 94.541 9.83008L 92.5684 9.83008L 92.5684 16.3828C 92.5684 16.806 92.6562 17.125 92.832 17.3398C 93.0078 17.5482 93.3073 17.6523 93.7305 17.6523C 93.9388 17.6523 94.2253 17.6133 94.5898 17.5352L 94.5898 19C 94.1146 19.1302 93.6523 19.1953 93.2031 19.1953C 92.3958 19.1953 91.7871 18.9512 91.377 18.4629C 90.9668 17.9746 90.7617 17.2812 90.7617 16.3828L 90.7617 9.83008L 88.8379 9.83008L 88.8379 8.43359L 90.7617 8.43359L 90.7617 5.875L 92.5684 5.875ZM 103.184 19C 103.079 18.7917 102.995 18.4206 102.93 17.8867C 102.09 18.7591 101.087 19.1953 99.9219 19.1953C 98.8802 19.1953 98.0241 18.9023 97.3535 18.3164C 96.6895 17.724 96.3574 16.9753 96.3574 16.0703C 96.3574 14.9701 96.7741 14.1172 97.6074 13.5117C 98.4473 12.8997 99.6257 12.5938 101.143 12.5938L 102.9 12.5938L 102.9 11.7637C 102.9 11.1322 102.712 10.6309 102.334 10.2598C 101.956 9.88216 101.4 9.69336 100.664 9.69336C 100.02 9.69336 99.4792 9.85612 99.043 10.1816C 98.6068 10.5072 98.3887 10.901 98.3887 11.3633L 96.5723 11.3633C 96.5723 10.8359 96.7578 10.3281 97.1289 9.83984C 97.5065 9.34505 98.0143 8.95443 98.6523 8.66797C 99.2969 8.38151 100.003 8.23828 100.771 8.23828C 101.989 8.23828 102.943 8.54427 103.633 9.15625C 104.323 9.76172 104.681 10.5983 104.707 11.666L 104.707 16.5293C 104.707 17.4993 104.831 18.2708 105.078 18.8438L 105.078 19L 103.184 19ZM 100.186 17.623C 100.752 17.623 101.289 17.4766 101.797 17.1836C 102.305 16.8906 102.673 16.5098 102.9 16.041L 102.9 13.873L 101.484 13.873C 99.2708 13.873 98.1641 14.5208 98.1641 15.8164C 98.1641 16.3828 98.3529 16.8255 98.7305 17.1445C 99.1081 17.4635 99.5931 17.623 100.186 17.623ZM 107.1 13.6289C 107.1 12.0078 107.484 10.7057 108.252 9.72266C 109.02 8.73307 110.026 8.23828 111.27 8.23828C 112.507 8.23828 113.486 8.66146 114.209 9.50781L 114.209 4L 116.016 4L 116.016 19L 114.355 19L 114.268 17.8672C 113.545 18.7526 112.539 19.1953 111.25 19.1953C 110.026 19.1953 109.027 18.694 108.252 17.6914C 107.484 16.6888 107.1 15.3802 107.1 13.7656L 107.1 13.6289ZM 108.906 13.834C 108.906 15.0319 109.154 15.9694 109.648 16.6465C 110.143 17.3236 110.827 17.6621 111.699 17.6621C 112.845 17.6621 113.682 17.1478 114.209 16.1191L 114.209 11.2656C 113.669 10.2695 112.839 9.77148 111.719 9.77148C 110.833 9.77148 110.143 10.1133 109.648 10.7969C 109.154 11.4805 108.906 12.4928 108.906 13.834ZM 118.35 13.6191C 118.35 12.584 118.551 11.653 118.955 10.8262C 119.365 9.99935 119.932 9.36133 120.654 8.91211C 121.383 8.46289 122.214 8.23828 123.145 8.23828C 124.583 8.23828 125.745 8.73633 126.631 9.73242C 127.523 10.7285 127.969 12.0534 127.969 13.707L 127.969 13.834C 127.969 14.8626 127.77 15.7871 127.373 16.6074C 126.982 17.4212 126.419 18.056 125.684 18.5117C 124.954 18.9674 124.115 19.1953 123.164 19.1953C 121.732 19.1953 120.57 18.6973 119.678 17.7012C 118.792 16.7051 118.35 15.3867 118.35 13.7461L 118.35 13.6191ZM 120.166 13.834C 120.166 15.0059 120.436 15.9466 120.977 16.6562C 121.523 17.3659 122.253 17.7207 123.164 17.7207C 124.082 17.7207 124.811 17.3626 125.352 16.6465C 125.892 15.9238 126.162 14.9147 126.162 13.6191C 126.162 12.4603 125.885 11.5228 125.332 10.8066C 124.785 10.084 124.056 9.72266 123.145 9.72266C 122.253 9.72266 121.533 10.0775 120.986 10.7871C 120.439 11.4967 120.166 12.5124 120.166 13.834Z"/>
</defs>
</svg>
