<?xml version="1.0" encoding="utf-8"?>
<!-- Generator: Adobe Illustrator 18.0.0, SVG Export Plug-In . SVG Version: 6.00 Build 0)  -->
<!DOCTYPE svg PUBLIC "-//W3C//DTD SVG 1.1//EN" "http://www.w3.org/Graphics/SVG/1.1/DTD/svg11.dtd">
<svg version="1.1" id="Capa_1" xmlns="http://www.w3.org/2000/svg" xmlns:xlink="http://www.w3.org/1999/xlink" x="0px" y="0px"
	 width="428.6px" height="428.6px" viewBox="0 0 428.6 428.6" enable-background="new 0 0 428.6 428.6" xml:space="preserve">
<g>
	<path fill="#FFFFFF" d="M428.6,348.2c0,44.4-36,80.4-80.4,80.4H80.4C36,428.6,0,392.6,0,348.2V80.4C0,36,36,0,80.4,0h267.9
		c44.4,0,80.4,36,80.4,80.4V348.2z M323.4,144c12.3-7.3,21.5-19,25.9-32.6c-11.4,6.7-24,11.7-37.4,14.2
		c-10.6-11.4-25.9-18.4-42.7-18.4c-32.4,0-58.6,26.2-58.6,58.6c0,4.5,0.3,9.2,1.4,13.4c-48.8-2.5-92.1-25.7-121.1-61.4
		c-5,8.6-8.1,19-8.1,29.6c0,20.4,9.5,38.2,25.4,48.8c-9.8-0.3-19-3.1-27.9-7.3c0,0,0,0.3,0,0.6c0,28.5,21.5,52.2,48.3,57.5
		c-5,1.4-8.9,2.2-14.2,2.2c-3.6,0-7.3-0.6-10.9-1.1c7.5,23.2,29,40.2,54.7,40.7c-20.1,15.6-45.2,25.1-72.8,25.1
		c-4.7,0-9.5-0.3-14-0.8c25.9,16.5,56.6,26.2,89.8,26.2c107.7,0,166.9-89.3,166.9-166.9c0-2.5,0-5-0.3-7.5
		c11.4-8.1,21.5-18.4,29.3-30.4C346.5,139.2,335.4,142.3,323.4,144z"/>
</g>
</svg>
